{"glyphs":{"0":{"ha":1061,"x_min":0,"x_max":0,"o":"m 533 -22 b 1014 547 827 -22 1014 203 b 533 1116 1014 890 827 1116 b 47 547 237 1116 47 890 b 533 -22 47 203 237 -22 z m 531 254 b 337 547 412 254 337 372 b 530 841 337 724 412 841 b 723 546 649 841 723 723 b 531 254 723 371 649 254 z "},"1":{"ha":539,"x_min":0,"x_max":0,"o":"m 359 1100 l 47 1018 l 47 732 l 154 758 l 154 0 l 444 0 l 444 1100 z "},"2":{"ha":972,"x_min":0,"x_max":0,"o":"m 578 267 b 911 718 758 366 911 538 b 491 1116 911 932 724 1116 b 73 742 258 1116 73 940 l 309 664 b 490 842 309 762 394 842 b 620 706 563 842 620 779 b 47 105 620 604 463 453 l 47 0 l 924 0 l 924 267 z "},"3":{"ha":889,"x_min":0,"x_max":0,"o":"m 656 623 b 781 834 734 659 781 743 b 439 1128 781 1002 630 1128 b 87 852 256 1128 125 1010 l 328 799 b 419 870 345 845 380 870 b 499 787 465 870 499 836 b 333 670 499 724 437 670 l 300 541 b 548 374 466 540 548 460 b 429 254 548 304 500 254 b 289 349 372 254 309 286 l 47 291 b 445 -17 73 126 240 -17 b 842 337 659 -17 842 128 b 656 623 842 474 762 579 z "},"4":{"ha":1021,"x_min":0,"x_max":0,"o":"m 993 450 l 886 450 l 886 689 l 597 689 l 597 450 l 419 450 l 676 1098 l 383 1099 l 14 191 l 597 191 l 597 0 l 886 0 l 886 191 l 993 191 z "},"5":{"ha":932,"x_min":0,"x_max":0,"o":"m 521 749 b 372 716 464 749 412 737 l 390 835 l 785 835 l 785 1094 l 186 1094 l 101 515 l 232 444 b 431 513 275 488 361 513 b 583 385 518 513 583 471 b 437 250 583 294 515 250 b 284 332 376 250 328 277 l 47 228 b 456 -17 134 58 292 -17 b 884 377 699 -17 884 140 b 521 749 884 587 739 749 z "},"6":{"ha":922,"x_min":0,"x_max":0,"o":"m 535 699 b 496 696 522 699 509 698 l 737 1092 l 406 1093 b 47 356 74 551 47 450 b 458 -21 47 103 237 -21 b 874 360 699 -21 874 157 b 535 699 874 555 713 699 z m 462 245 b 339 368 394 245 339 296 b 463 496 339 442 395 495 b 587 369 530 496 587 441 b 462 245 587 297 530 245 z "},"7":{"ha":846,"x_min":0,"x_max":0,"o":"m 28 1093 l 28 827 l 427 827 l 112 0 l 416 0 l 832 1043 l 832 1093 z "},"8":{"ha":932,"x_min":0,"x_max":0,"o":"m 466 -22 b 885 330 718 -22 885 130 b 677 618 885 513 747 602 b 825 825 728 632 825 702 b 467 1116 825 979 677 1116 b 110 824 260 1116 110 982 b 252 618 110 706 193 630 b 47 332 176 603 47 508 b 466 -22 47 127 218 -22 z m 467 696 b 372 790 415 696 372 735 b 467 880 372 847 417 880 b 564 789 518 880 564 848 b 467 696 564 732 517 696 z m 466 239 b 332 364 397 239 332 288 b 467 496 332 440 396 496 b 602 366 536 496 602 442 b 466 239 602 290 536 239 z "},"9":{"ha":922,"x_min":0,"x_max":0,"o":"m 461 1118 b 47 729 228 1118 47 942 b 388 378 47 545 205 378 b 412 379 396 378 404 378 l 184 1 l 517 1 b 874 726 848 562 874 600 b 461 1118 874 941 696 1118 z m 460 601 b 337 724 393 601 337 656 b 460 852 337 800 392 852 b 584 724 527 852 584 800 b 460 601 584 655 527 601 z "}," ":{"ha":424,"x_min":0,"x_max":0,"o":""},"A":{"ha":1183,"x_min":0,"x_max":0,"o":"m 850 0 l 1168 0 l 660 1107 l 522 1107 l 14 0 l 332 0 l 387 127 l 795 127 z m 479 340 l 591 599 l 703 340 z "},"a":{"ha":1183,"x_min":0,"x_max":0,"o":"m 850 0 l 1168 0 l 660 1107 l 522 1107 l 14 0 l 332 0 l 387 127 l 795 127 z m 479 340 l 591 599 l 703 340 z "},"Á":{"ha":1183,"x_min":0,"x_max":0,"o":"m 821 1412 l 593 1412 l 477 1183 l 659 1183 z m 850 0 l 1168 0 l 660 1107 l 522 1107 l 14 0 l 332 0 l 387 127 l 795 127 z m 479 340 l 591 599 l 703 340 z "},"á":{"ha":1183,"x_min":0,"x_max":0,"o":"m 821 1412 l 593 1412 l 477 1183 l 659 1183 z m 850 0 l 1168 0 l 660 1107 l 522 1107 l 14 0 l 332 0 l 387 127 l 795 127 z m 479 340 l 591 599 l 703 340 z "},"Ă":{"ha":1183,"x_min":0,"x_max":0,"o":"m 591 1189 b 810 1393 716 1189 810 1277 l 680 1393 b 591 1302 680 1341 642 1302 b 503 1393 541 1302 503 1341 l 373 1393 b 591 1189 373 1277 467 1189 z m 850 0 l 1168 0 l 660 1107 l 522 1107 l 14 0 l 332 0 l 387 127 l 795 127 z m 479 340 l 591 599 l 703 340 z "},"ă":{"ha":1183,"x_min":0,"x_max":0,"o":"m 591 1189 b 810 1393 716 1189 810 1277 l 680 1393 b 591 1302 680 1341 642 1302 b 503 1393 541 1302 503 1341 l 373 1393 b 591 1189 373 1277 467 1189 z m 850 0 l 1168 0 l 660 1107 l 522 1107 l 14 0 l 332 0 l 387 127 l 795 127 z m 479 340 l 591 599 l 703 340 z "},"Â":{"ha":1183,"x_min":0,"x_max":0,"o":"m 591 1281 l 677 1193 l 885 1193 l 671 1392 l 509 1392 l 298 1193 l 505 1193 z m 850 0 l 1168 0 l 660 1107 l 522 1107 l 14 0 l 332 0 l 387 127 l 795 127 z m 479 340 l 591 599 l 703 340 z "},"â":{"ha":1183,"x_min":0,"x_max":0,"o":"m 591 1281 l 677 1193 l 885 1193 l 671 1392 l 509 1392 l 298 1193 l 505 1193 z m 850 0 l 1168 0 l 660 1107 l 522 1107 l 14 0 l 332 0 l 387 127 l 795 127 z m 479 340 l 591 599 l 703 340 z "},"Ä":{"ha":1183,"x_min":0,"x_max":0,"o":"m 429 1194 b 528 1287 482 1194 528 1236 b 429 1381 528 1337 482 1381 b 328 1287 374 1381 328 1337 b 429 1194 328 1236 374 1194 z m 755 1194 b 855 1287 810 1194 855 1236 b 755 1381 855 1337 810 1381 b 656 1287 701 1381 656 1337 b 755 1194 656 1236 701 1194 z m 850 0 l 1168 0 l 660 1107 l 522 1107 l 14 0 l 332 0 l 387 127 l 795 127 z m 479 340 l 591 599 l 703 340 z "},"ä":{"ha":1183,"x_min":0,"x_max":0,"o":"m 429 1194 b 528 1287 482 1194 528 1236 b 429 1381 528 1337 482 1381 b 328 1287 374 1381 328 1337 b 429 1194 328 1236 374 1194 z m 755 1194 b 855 1287 810 1194 855 1236 b 755 1381 855 1337 810 1381 b 656 1287 701 1381 656 1337 b 755 1194 656 1236 701 1194 z m 850 0 l 1168 0 l 660 1107 l 522 1107 l 14 0 l 332 0 l 387 127 l 795 127 z m 479 340 l 591 599 l 703 340 z "},"À":{"ha":1183,"x_min":0,"x_max":0,"o":"m 764 1183 l 647 1412 l 420 1412 l 581 1183 z m 850 0 l 1168 0 l 660 1107 l 522 1107 l 14 0 l 332 0 l 387 127 l 795 127 z m 479 340 l 591 599 l 703 340 z "},"à":{"ha":1183,"x_min":0,"x_max":0,"o":"m 764 1183 l 647 1412 l 420 1412 l 581 1183 z m 850 0 l 1168 0 l 660 1107 l 522 1107 l 14 0 l 332 0 l 387 127 l 795 127 z m 479 340 l 591 599 l 703 340 z "},"Ā":{"ha":1183,"x_min":0,"x_max":0,"o":"m 814 1358 l 370 1358 l 370 1221 l 814 1221 z m 850 0 l 1168 0 l 660 1107 l 522 1107 l 14 0 l 332 0 l 387 127 l 795 127 z m 479 340 l 591 599 l 703 340 z "},"ā":{"ha":1183,"x_min":0,"x_max":0,"o":"m 814 1358 l 370 1358 l 370 1221 l 814 1221 z m 850 0 l 1168 0 l 660 1107 l 522 1107 l 14 0 l 332 0 l 387 127 l 795 127 z m 479 340 l 591 599 l 703 340 z "},"Ą":{"ha":1183,"x_min":0,"x_max":0,"o":"m 1034 -201 b 994 -157 1006 -201 994 -180 b 1128 0 994 -111 1034 -69 l 1168 0 l 660 1107 l 522 1107 l 14 0 l 332 0 l 387 127 l 795 127 l 850 0 l 937 0 b 792 -218 854 -43 792 -123 b 1010 -387 792 -323 868 -387 b 1141 -372 1049 -387 1093 -382 l 1114 -189 b 1034 -201 1079 -197 1048 -201 z m 479 340 l 591 599 l 703 340 z "},"ą":{"ha":1183,"x_min":0,"x_max":0,"o":"m 1034 -201 b 994 -157 1006 -201 994 -180 b 1128 0 994 -111 1034 -69 l 1168 0 l 660 1107 l 522 1107 l 14 0 l 332 0 l 387 127 l 795 127 l 850 0 l 937 0 b 792 -218 854 -43 792 -123 b 1010 -387 792 -323 868 -387 b 1141 -372 1049 -387 1093 -382 l 1114 -189 b 1034 -201 1079 -197 1048 -201 z m 479 340 l 591 599 l 703 340 z "},"Å":{"ha":1183,"x_min":0,"x_max":0,"o":"m 592 1158 b 755 1316 681 1158 755 1230 b 592 1475 755 1402 681 1475 b 427 1316 502 1475 427 1403 b 592 1158 427 1229 502 1158 z m 592 1374 b 652 1315 625 1374 652 1348 b 592 1257 652 1283 625 1257 b 531 1315 558 1257 531 1283 b 592 1374 531 1348 558 1374 z m 850 0 l 1168 0 l 660 1107 l 522 1107 l 14 0 l 332 0 l 387 127 l 795 127 z m 479 340 l 591 599 l 703 340 z "},"å":{"ha":1183,"x_min":0,"x_max":0,"o":"m 592 1158 b 755 1316 681 1158 755 1230 b 592 1475 755 1402 681 1475 b 427 1316 502 1475 427 1403 b 592 1158 427 1229 502 1158 z m 592 1374 b 652 1315 625 1374 652 1348 b 592 1257 652 1283 625 1257 b 531 1315 558 1257 531 1283 b 592 1374 531 1348 558 1374 z m 850 0 l 1168 0 l 660 1107 l 522 1107 l 14 0 l 332 0 l 387 127 l 795 127 z m 479 340 l 591 599 l 703 340 z "},"Ã":{"ha":1183,"x_min":0,"x_max":0,"o":"m 486 1284 b 698 1196 547 1284 584 1196 b 896 1378 771 1196 867 1233 l 764 1419 b 697 1335 753 1372 734 1335 b 485 1422 637 1335 598 1422 b 287 1240 408 1422 315 1382 l 419 1200 b 486 1284 430 1246 448 1284 z m 850 0 l 1168 0 l 660 1107 l 522 1107 l 14 0 l 332 0 l 387 127 l 795 127 z m 479 340 l 591 599 l 703 340 z "},"ã":{"ha":1183,"x_min":0,"x_max":0,"o":"m 486 1284 b 698 1196 547 1284 584 1196 b 896 1378 771 1196 867 1233 l 764 1419 b 697 1335 753 1372 734 1335 b 485 1422 637 1335 598 1422 b 287 1240 408 1422 315 1382 l 419 1200 b 486 1284 430 1246 448 1284 z m 850 0 l 1168 0 l 660 1107 l 522 1107 l 14 0 l 332 0 l 387 127 l 795 127 z m 479 340 l 591 599 l 703 340 z "},"Æ":{"ha":1492,"x_min":0,"x_max":0,"o":"m 1426 823 l 1426 1093 l 544 1093 l 14 0 l 328 0 l 404 157 l 717 157 l 717 0 l 1426 0 l 1426 272 l 1004 272 l 1004 429 l 1351 429 l 1351 671 l 1004 671 l 1004 823 z m 522 399 l 717 801 l 717 399 z "},"æ":{"ha":1492,"x_min":0,"x_max":0,"o":"m 1426 823 l 1426 1093 l 544 1093 l 14 0 l 328 0 l 404 157 l 717 157 l 717 0 l 1426 0 l 1426 272 l 1004 272 l 1004 429 l 1351 429 l 1351 671 l 1004 671 l 1004 823 z m 522 399 l 717 801 l 717 399 z "},"B":{"ha":954,"x_min":0,"x_max":0,"o":"m 678 616 b 798 809 723 616 798 696 b 454 1093 798 960 652 1093 l 95 1093 l 95 0 l 562 0 b 926 334 781 0 926 161 b 678 616 926 498 795 616 z m 554 757 b 444 669 554 701 507 669 l 374 669 l 374 841 l 446 841 b 554 757 508 841 554 810 z m 517 264 l 374 264 l 374 471 l 519 471 b 648 368 602 471 648 432 b 517 264 648 296 584 264 z "},"b":{"ha":954,"x_min":0,"x_max":0,"o":"m 678 616 b 798 809 723 616 798 696 b 454 1093 798 960 652 1093 l 95 1093 l 95 0 l 562 0 b 926 334 781 0 926 161 b 678 616 926 498 795 616 z m 554 757 b 444 669 554 701 507 669 l 374 669 l 374 841 l 446 841 b 554 757 508 841 554 810 z m 517 264 l 374 264 l 374 471 l 519 471 b 648 368 602 471 648 432 b 517 264 648 296 584 264 z "},"C":{"ha":1082,"x_min":0,"x_max":0,"o":"m 644 -24 b 1054 136 810 -24 949 41 l 888 357 b 644 250 818 294 736 250 b 342 545 488 250 342 375 b 650 840 342 712 482 840 b 887 739 731 840 820 800 l 1054 954 b 650 1119 942 1055 791 1117 b 47 547 309 1119 47 870 b 644 -24 47 203 336 -24 z "},"c":{"ha":1082,"x_min":0,"x_max":0,"o":"m 644 -24 b 1054 136 810 -24 949 41 l 888 357 b 644 250 818 294 736 250 b 342 545 488 250 342 375 b 650 840 342 712 482 840 b 887 739 731 840 820 800 l 1054 954 b 650 1119 942 1055 791 1117 b 47 547 309 1119 47 870 b 644 -24 47 203 336 -24 z "},"Ć":{"ha":1082,"x_min":0,"x_max":0,"o":"m 661 1181 l 823 1410 l 595 1410 l 479 1181 z m 644 -24 b 1054 136 810 -24 949 41 l 888 357 b 644 250 818 294 736 250 b 342 545 488 250 342 375 b 650 840 342 712 482 840 b 887 739 731 840 820 800 l 1054 954 b 650 1119 942 1055 791 1117 b 47 547 309 1119 47 870 b 644 -24 47 203 336 -24 z "},"ć":{"ha":1082,"x_min":0,"x_max":0,"o":"m 661 1181 l 823 1410 l 595 1410 l 479 1181 z m 644 -24 b 1054 136 810 -24 949 41 l 888 357 b 644 250 818 294 736 250 b 342 545 488 250 342 375 b 650 840 342 712 482 840 b 887 739 731 840 820 800 l 1054 954 b 650 1119 942 1055 791 1117 b 47 547 309 1119 47 870 b 644 -24 47 203 336 -24 z "},"Č":{"ha":1082,"x_min":0,"x_max":0,"o":"m 300 1390 l 511 1191 l 673 1191 l 886 1390 l 678 1390 l 592 1301 l 506 1390 z m 644 -24 b 1054 136 810 -24 949 41 l 888 357 b 644 250 818 294 736 250 b 342 545 488 250 342 375 b 650 840 342 712 482 840 b 887 739 731 840 820 800 l 1054 954 b 650 1119 942 1055 791 1117 b 47 547 309 1119 47 870 b 644 -24 47 203 336 -24 z "},"č":{"ha":1082,"x_min":0,"x_max":0,"o":"m 300 1390 l 511 1191 l 673 1191 l 886 1390 l 678 1390 l 592 1301 l 506 1390 z m 644 -24 b 1054 136 810 -24 949 41 l 888 357 b 644 250 818 294 736 250 b 342 545 488 250 342 375 b 650 840 342 712 482 840 b 887 739 731 840 820 800 l 1054 954 b 650 1119 942 1055 791 1117 b 47 547 309 1119 47 870 b 644 -24 47 203 336 -24 z "},"Ç":{"ha":1082,"x_min":0,"x_max":0,"o":"m 1054 136 l 888 357 b 644 250 818 294 736 250 b 342 545 488 250 342 375 b 650 840 342 712 482 840 b 887 739 731 840 820 800 l 1054 954 b 650 1119 942 1055 791 1117 b 47 547 309 1119 47 870 b 550 -17 47 239 279 24 l 473 -113 l 505 -154 b 538 -149 518 -151 529 -149 b 581 -180 574 -149 581 -169 b 400 -233 581 -210 532 -233 l 467 -389 b 767 -174 631 -391 767 -286 b 659 -58 767 -109 720 -58 b 642 -59 652 -58 648 -59 l 671 -24 b 1054 136 826 -17 956 47 z "},"ç":{"ha":1082,"x_min":0,"x_max":0,"o":"m 1054 136 l 888 357 b 644 250 818 294 736 250 b 342 545 488 250 342 375 b 650 840 342 712 482 840 b 887 739 731 840 820 800 l 1054 954 b 650 1119 942 1055 791 1117 b 47 547 309 1119 47 870 b 550 -17 47 239 279 24 l 473 -113 l 505 -154 b 538 -149 518 -151 529 -149 b 581 -180 574 -149 581 -169 b 400 -233 581 -210 532 -233 l 467 -389 b 767 -174 631 -391 767 -286 b 659 -58 767 -109 720 -58 b 642 -59 652 -58 648 -59 l 671 -24 b 1054 136 826 -17 956 47 z "},"Ċ":{"ha":1082,"x_min":0,"x_max":0,"o":"m 593 1191 b 709 1298 656 1191 709 1238 b 593 1407 709 1356 656 1407 b 479 1297 530 1407 479 1356 b 593 1191 479 1239 530 1191 z m 644 -24 b 1054 136 810 -24 949 41 l 888 357 b 644 250 818 294 736 250 b 342 545 488 250 342 375 b 650 840 342 712 482 840 b 887 739 731 840 820 800 l 1054 954 b 650 1119 942 1055 791 1117 b 47 547 309 1119 47 870 b 644 -24 47 203 336 -24 z "},"ċ":{"ha":1082,"x_min":0,"x_max":0,"o":"m 593 1191 b 709 1298 656 1191 709 1238 b 593 1407 709 1356 656 1407 b 479 1297 530 1407 479 1356 b 593 1191 479 1239 530 1191 z m 644 -24 b 1054 136 810 -24 949 41 l 888 357 b 644 250 818 294 736 250 b 342 545 488 250 342 375 b 650 840 342 712 482 840 b 887 739 731 840 820 800 l 1054 954 b 650 1119 942 1055 791 1117 b 47 547 309 1119 47 870 b 644 -24 47 203 336 -24 z "},"D":{"ha":1098,"x_min":0,"x_max":0,"o":"m 452 1093 l 95 1093 l 95 0 l 452 0 b 1050 545 823 0 1050 206 b 452 1093 1050 887 823 1095 z m 447 273 l 378 273 l 378 822 l 444 822 b 760 546 640 822 760 718 b 447 273 760 376 641 273 z "},"d":{"ha":1098,"x_min":0,"x_max":0,"o":"m 452 1093 l 95 1093 l 95 0 l 452 0 b 1050 545 823 0 1050 206 b 452 1093 1050 887 823 1095 z m 447 273 l 378 273 l 378 822 l 444 822 b 760 546 640 822 760 718 b 447 273 760 376 641 273 z "},"Ð":{"ha":1151,"x_min":0,"x_max":0,"o":"m 505 1093 l 149 1093 l 149 630 l 28 630 l 28 454 l 149 454 l 149 0 l 505 0 b 1103 545 877 0 1103 206 b 505 1093 1103 887 877 1095 z m 500 273 l 431 273 l 431 454 l 577 454 l 577 629 l 431 629 l 431 822 l 498 822 b 812 546 694 822 812 718 b 500 273 812 376 694 273 z "},"ð":{"ha":1151,"x_min":0,"x_max":0,"o":"m 505 1093 l 149 1093 l 149 630 l 28 630 l 28 454 l 149 454 l 149 0 l 505 0 b 1103 545 877 0 1103 206 b 505 1093 1103 887 877 1095 z m 500 273 l 431 273 l 431 454 l 577 454 l 577 629 l 431 629 l 431 822 l 498 822 b 812 546 694 822 812 718 b 500 273 812 376 694 273 z "},"Ď":{"ha":1098,"x_min":0,"x_max":0,"o":"m 637 1193 l 850 1392 l 642 1392 l 556 1303 l 470 1392 l 264 1392 l 475 1193 z m 452 1093 l 95 1093 l 95 0 l 452 0 b 1050 545 823 0 1050 206 b 452 1093 1050 887 823 1095 z m 447 273 l 378 273 l 378 822 l 444 822 b 760 546 640 822 760 718 b 447 273 760 376 641 273 z "},"ď":{"ha":1098,"x_min":0,"x_max":0,"o":"m 637 1193 l 850 1392 l 642 1392 l 556 1303 l 470 1392 l 264 1392 l 475 1193 z m 452 1093 l 95 1093 l 95 0 l 452 0 b 1050 545 823 0 1050 206 b 452 1093 1050 887 823 1095 z m 447 273 l 378 273 l 378 822 l 444 822 b 760 546 640 822 760 718 b 447 273 760 376 641 273 z "},"Đ":{"ha":1151,"x_min":0,"x_max":0,"o":"m 505 1093 l 149 1093 l 149 630 l 28 630 l 28 454 l 149 454 l 149 0 l 505 0 b 1103 545 877 0 1103 206 b 505 1093 1103 887 877 1095 z m 500 273 l 431 273 l 431 454 l 577 454 l 577 629 l 431 629 l 431 822 l 498 822 b 812 546 694 822 812 718 b 500 273 812 376 694 273 z "},"đ":{"ha":1151,"x_min":0,"x_max":0,"o":"m 505 1093 l 149 1093 l 149 630 l 28 630 l 28 454 l 149 454 l 149 0 l 505 0 b 1103 545 877 0 1103 206 b 505 1093 1103 887 877 1095 z m 500 273 l 431 273 l 431 454 l 577 454 l 577 629 l 431 629 l 431 822 l 498 822 b 812 546 694 822 812 718 b 500 273 812 376 694 273 z "},"E":{"ha":870,"x_min":0,"x_max":0,"o":"m 804 823 l 804 1093 l 95 1093 l 95 0 l 804 0 l 804 272 l 382 272 l 382 429 l 729 429 l 729 671 l 382 671 l 382 823 z "},"e":{"ha":870,"x_min":0,"x_max":0,"o":"m 804 823 l 804 1093 l 95 1093 l 95 0 l 804 0 l 804 272 l 382 272 l 382 429 l 729 429 l 729 671 l 382 671 l 382 823 z "},"É":{"ha":870,"x_min":0,"x_max":0,"o":"m 661 1412 l 434 1412 l 317 1183 l 500 1183 z m 804 823 l 804 1093 l 95 1093 l 95 0 l 804 0 l 804 272 l 382 272 l 382 429 l 729 429 l 729 671 l 382 671 l 382 823 z "},"é":{"ha":870,"x_min":0,"x_max":0,"o":"m 661 1412 l 434 1412 l 317 1183 l 500 1183 z m 804 823 l 804 1093 l 95 1093 l 95 0 l 804 0 l 804 272 l 382 272 l 382 429 l 729 429 l 729 671 l 382 671 l 382 823 z "},"Ĕ":{"ha":870,"x_min":0,"x_max":0,"o":"m 432 1189 b 651 1393 557 1189 651 1277 l 521 1393 b 432 1302 521 1341 482 1302 b 344 1393 382 1302 344 1341 l 214 1393 b 432 1189 214 1277 307 1189 z m 804 823 l 804 1093 l 95 1093 l 95 0 l 804 0 l 804 272 l 382 272 l 382 429 l 729 429 l 729 671 l 382 671 l 382 823 z "},"ĕ":{"ha":870,"x_min":0,"x_max":0,"o":"m 432 1189 b 651 1393 557 1189 651 1277 l 521 1393 b 432 1302 521 1341 482 1302 b 344 1393 382 1302 344 1341 l 214 1393 b 432 1189 214 1277 307 1189 z m 804 823 l 804 1093 l 95 1093 l 95 0 l 804 0 l 804 272 l 382 272 l 382 429 l 729 429 l 729 671 l 382 671 l 382 823 z "},"Ě":{"ha":870,"x_min":0,"x_max":0,"o":"m 511 1193 l 725 1392 l 517 1392 l 431 1303 l 345 1392 l 138 1392 l 349 1193 z m 804 823 l 804 1093 l 95 1093 l 95 0 l 804 0 l 804 272 l 382 272 l 382 429 l 729 429 l 729 671 l 382 671 l 382 823 z "},"ě":{"ha":870,"x_min":0,"x_max":0,"o":"m 511 1193 l 725 1392 l 517 1392 l 431 1303 l 345 1392 l 138 1392 l 349 1193 z m 804 823 l 804 1093 l 95 1093 l 95 0 l 804 0 l 804 272 l 382 272 l 382 429 l 729 429 l 729 671 l 382 671 l 382 823 z "},"Ê":{"ha":870,"x_min":0,"x_max":0,"o":"m 431 1281 l 517 1193 l 726 1193 l 512 1392 l 350 1392 l 139 1193 l 345 1193 z m 804 823 l 804 1093 l 95 1093 l 95 0 l 804 0 l 804 272 l 382 272 l 382 429 l 729 429 l 729 671 l 382 671 l 382 823 z "},"ê":{"ha":870,"x_min":0,"x_max":0,"o":"m 431 1281 l 517 1193 l 726 1193 l 512 1392 l 350 1392 l 139 1193 l 345 1193 z m 804 823 l 804 1093 l 95 1093 l 95 0 l 804 0 l 804 272 l 382 272 l 382 429 l 729 429 l 729 671 l 382 671 l 382 823 z "},"Ë":{"ha":870,"x_min":0,"x_max":0,"o":"m 269 1194 b 368 1287 323 1194 368 1236 b 269 1381 368 1337 323 1381 b 169 1287 214 1381 169 1337 b 269 1194 169 1236 214 1194 z m 595 1194 b 696 1287 650 1194 696 1236 b 595 1381 696 1337 650 1381 b 496 1287 542 1381 496 1337 b 595 1194 496 1236 541 1194 z m 804 823 l 804 1093 l 95 1093 l 95 0 l 804 0 l 804 272 l 382 272 l 382 429 l 729 429 l 729 671 l 382 671 l 382 823 z "},"ë":{"ha":870,"x_min":0,"x_max":0,"o":"m 269 1194 b 368 1287 323 1194 368 1236 b 269 1381 368 1337 323 1381 b 169 1287 214 1381 169 1337 b 269 1194 169 1236 214 1194 z m 595 1194 b 696 1287 650 1194 696 1236 b 595 1381 696 1337 650 1381 b 496 1287 542 1381 496 1337 b 595 1194 496 1236 541 1194 z m 804 823 l 804 1093 l 95 1093 l 95 0 l 804 0 l 804 272 l 382 272 l 382 429 l 729 429 l 729 671 l 382 671 l 382 823 z "},"Ė":{"ha":870,"x_min":0,"x_max":0,"o":"m 432 1193 b 547 1300 494 1193 547 1240 b 432 1409 547 1358 495 1409 b 317 1299 369 1409 317 1358 b 432 1193 317 1241 368 1193 z m 804 823 l 804 1093 l 95 1093 l 95 0 l 804 0 l 804 272 l 382 272 l 382 429 l 729 429 l 729 671 l 382 671 l 382 823 z "},"ė":{"ha":870,"x_min":0,"x_max":0,"o":"m 432 1193 b 547 1300 494 1193 547 1240 b 432 1409 547 1358 495 1409 b 317 1299 369 1409 317 1358 b 432 1193 317 1241 368 1193 z m 804 823 l 804 1093 l 95 1093 l 95 0 l 804 0 l 804 272 l 382 272 l 382 429 l 729 429 l 729 671 l 382 671 l 382 823 z "},"È":{"ha":870,"x_min":0,"x_max":0,"o":"m 604 1183 l 488 1412 l 260 1412 l 422 1183 z m 804 823 l 804 1093 l 95 1093 l 95 0 l 804 0 l 804 272 l 382 272 l 382 429 l 729 429 l 729 671 l 382 671 l 382 823 z "},"è":{"ha":870,"x_min":0,"x_max":0,"o":"m 604 1183 l 488 1412 l 260 1412 l 422 1183 z m 804 823 l 804 1093 l 95 1093 l 95 0 l 804 0 l 804 272 l 382 272 l 382 429 l 729 429 l 729 671 l 382 671 l 382 823 z "},"Ē":{"ha":870,"x_min":0,"x_max":0,"o":"m 654 1358 l 210 1358 l 210 1221 l 654 1221 z m 804 823 l 804 1093 l 95 1093 l 95 0 l 804 0 l 804 272 l 382 272 l 382 429 l 729 429 l 729 671 l 382 671 l 382 823 z "},"ē":{"ha":870,"x_min":0,"x_max":0,"o":"m 654 1358 l 210 1358 l 210 1221 l 654 1221 z m 804 823 l 804 1093 l 95 1093 l 95 0 l 804 0 l 804 272 l 382 272 l 382 429 l 729 429 l 729 671 l 382 671 l 382 823 z "},"Ę":{"ha":870,"x_min":0,"x_max":0,"o":"m 804 823 l 804 1093 l 95 1093 l 95 0 l 593 0 b 455 -214 514 -43 455 -122 b 673 -383 455 -320 531 -383 b 804 -368 712 -383 755 -378 l 777 -185 b 696 -198 742 -194 711 -198 b 657 -154 669 -198 657 -177 b 786 0 657 -108 696 -67 l 804 0 l 804 272 l 382 272 l 382 429 l 729 429 l 729 671 l 382 671 l 382 823 z "},"ę":{"ha":870,"x_min":0,"x_max":0,"o":"m 804 823 l 804 1093 l 95 1093 l 95 0 l 593 0 b 455 -214 514 -43 455 -122 b 673 -383 455 -320 531 -383 b 804 -368 712 -383 755 -378 l 777 -185 b 696 -198 742 -194 711 -198 b 657 -154 669 -198 657 -177 b 786 0 657 -108 696 -67 l 804 0 l 804 272 l 382 272 l 382 429 l 729 429 l 729 671 l 382 671 l 382 823 z "},"F":{"ha":832,"x_min":0,"x_max":0,"o":"m 804 823 l 804 1096 l 95 1096 l 95 -1 l 382 -1 l 382 404 l 729 404 l 729 646 l 382 646 l 382 823 z "},"f":{"ha":832,"x_min":0,"x_max":0,"o":"m 804 823 l 804 1096 l 95 1096 l 95 -1 l 382 -1 l 382 404 l 729 404 l 729 646 l 382 646 l 382 823 z "},"G":{"ha":1266,"x_min":0,"x_max":0,"o":"m 1210 628 l 649 628 l 649 412 l 899 412 b 669 243 895 307 801 243 b 344 546 467 243 344 393 b 650 848 344 715 487 848 b 879 755 730 848 818 812 l 1040 975 b 650 1120 949 1059 789 1118 b 47 545 311 1120 47 857 b 657 -26 47 233 310 -26 b 1219 522 968 -26 1219 189 b 1210 628 1219 556 1215 591 z "},"g":{"ha":1266,"x_min":0,"x_max":0,"o":"m 1210 628 l 649 628 l 649 412 l 899 412 b 669 243 895 307 801 243 b 344 546 467 243 344 393 b 650 848 344 715 487 848 b 879 755 730 848 818 812 l 1040 975 b 650 1120 949 1059 789 1118 b 47 545 311 1120 47 857 b 657 -26 47 233 310 -26 b 1219 522 968 -26 1219 189 b 1210 628 1219 556 1215 591 z "},"Ğ":{"ha":1266,"x_min":0,"x_max":0,"o":"m 650 1189 b 869 1393 774 1189 869 1277 l 739 1393 b 650 1302 739 1341 700 1302 b 562 1393 600 1302 562 1341 l 431 1393 b 650 1189 431 1277 525 1189 z m 1210 628 l 649 628 l 649 412 l 899 412 b 669 243 895 307 801 243 b 344 546 467 243 344 393 b 650 848 344 715 487 848 b 879 755 730 848 818 812 l 1040 975 b 650 1120 949 1059 789 1118 b 47 545 311 1120 47 857 b 657 -26 47 233 310 -26 b 1219 522 968 -26 1219 189 b 1210 628 1219 556 1215 591 z "},"ğ":{"ha":1266,"x_min":0,"x_max":0,"o":"m 650 1189 b 869 1393 774 1189 869 1277 l 739 1393 b 650 1302 739 1341 700 1302 b 562 1393 600 1302 562 1341 l 431 1393 b 650 1189 431 1277 525 1189 z m 1210 628 l 649 628 l 649 412 l 899 412 b 669 243 895 307 801 243 b 344 546 467 243 344 393 b 650 848 344 715 487 848 b 879 755 730 848 818 812 l 1040 975 b 650 1120 949 1059 789 1118 b 47 545 311 1120 47 857 b 657 -26 47 233 310 -26 b 1219 522 968 -26 1219 189 b 1210 628 1219 556 1215 591 z "},"Ģ":{"ha":1266,"x_min":0,"x_max":0,"o":"m 1210 628 l 649 628 l 649 412 l 899 412 b 669 243 895 307 801 243 b 344 546 467 243 344 393 b 650 848 344 715 487 848 b 879 755 730 848 818 812 l 1040 975 b 650 1120 949 1059 789 1118 b 47 545 311 1120 47 857 b 657 -26 47 233 310 -26 b 1219 522 968 -26 1219 189 b 1210 628 1219 556 1215 591 z m 652 -77 b 526 -185 579 -77 526 -128 b 618 -276 526 -237 574 -276 b 627 -307 623 -282 627 -290 b 532 -385 627 -363 564 -385 b 604 -416 532 -395 561 -416 b 778 -218 711 -416 778 -315 b 652 -77 778 -133 727 -77 z "},"ģ":{"ha":1266,"x_min":0,"x_max":0,"o":"m 1210 628 l 649 628 l 649 412 l 899 412 b 669 243 895 307 801 243 b 344 546 467 243 344 393 b 650 848 344 715 487 848 b 879 755 730 848 818 812 l 1040 975 b 650 1120 949 1059 789 1118 b 47 545 311 1120 47 857 b 657 -26 47 233 310 -26 b 1219 522 968 -26 1219 189 b 1210 628 1219 556 1215 591 z m 652 -77 b 526 -185 579 -77 526 -128 b 618 -276 526 -237 574 -276 b 627 -307 623 -282 627 -290 b 532 -385 627 -363 564 -385 b 604 -416 532 -395 561 -416 b 778 -218 711 -416 778 -315 b 652 -77 778 -133 727 -77 z "},"Ġ":{"ha":1266,"x_min":0,"x_max":0,"o":"m 650 1193 b 766 1300 713 1193 766 1240 b 650 1409 766 1358 713 1409 b 536 1299 587 1409 536 1358 b 650 1193 536 1241 587 1193 z m 1210 628 l 649 628 l 649 412 l 899 412 b 669 243 895 307 801 243 b 344 546 467 243 344 393 b 650 848 344 715 487 848 b 879 755 730 848 818 812 l 1040 975 b 650 1120 949 1059 789 1118 b 47 545 311 1120 47 857 b 657 -26 47 233 310 -26 b 1219 522 968 -26 1219 189 b 1210 628 1219 556 1215 591 z "},"ġ":{"ha":1266,"x_min":0,"x_max":0,"o":"m 650 1193 b 766 1300 713 1193 766 1240 b 650 1409 766 1358 713 1409 b 536 1299 587 1409 536 1358 b 650 1193 536 1241 587 1193 z m 1210 628 l 649 628 l 649 412 l 899 412 b 669 243 895 307 801 243 b 344 546 467 243 344 393 b 650 848 344 715 487 848 b 879 755 730 848 818 812 l 1040 975 b 650 1120 949 1059 789 1118 b 47 545 311 1120 47 857 b 657 -26 47 233 310 -26 b 1219 522 968 -26 1219 189 b 1210 628 1219 556 1215 591 z "},"H":{"ha":1095,"x_min":0,"x_max":0,"o":"m 710 1093 l 710 683 l 385 683 l 385 1093 l 95 1093 l 95 0 l 385 0 l 385 412 l 710 412 l 710 0 l 1000 0 l 1000 1093 z "},"h":{"ha":1095,"x_min":0,"x_max":0,"o":"m 710 1093 l 710 683 l 385 683 l 385 1093 l 95 1093 l 95 0 l 385 0 l 385 412 l 710 412 l 710 0 l 1000 0 l 1000 1093 z "},"Ħ":{"ha":1095,"x_min":0,"x_max":0,"o":"m 1082 941 l 1000 941 l 1000 1093 l 710 1093 l 710 941 l 385 941 l 385 1093 l 95 1093 l 95 941 l 13 941 l 13 785 l 95 785 l 95 0 l 385 0 l 385 412 l 710 412 l 710 0 l 1000 0 l 1000 785 l 1082 785 z m 710 683 l 385 683 l 385 785 l 710 785 z "},"ħ":{"ha":1095,"x_min":0,"x_max":0,"o":"m 1082 941 l 1000 941 l 1000 1093 l 710 1093 l 710 941 l 385 941 l 385 1093 l 95 1093 l 95 941 l 13 941 l 13 785 l 95 785 l 95 0 l 385 0 l 385 412 l 710 412 l 710 0 l 1000 0 l 1000 785 l 1082 785 z m 710 683 l 385 683 l 385 785 l 710 785 z "},"I":{"ha":480,"x_min":0,"x_max":0,"o":"m 95 0 l 385 0 l 385 1093 l 95 1093 z "},"Í":{"ha":480,"x_min":0,"x_max":0,"o":"m 309 1183 l 470 1412 l 243 1412 l 126 1183 z m 95 0 l 385 0 l 385 1093 l 95 1093 z "},"í":{"ha":480,"x_min":0,"x_max":0,"o":"m 309 1183 l 470 1412 l 243 1412 l 126 1183 z m 95 0 l 385 0 l 385 1093 l 95 1093 z "},"Î":{"ha":480,"x_min":0,"x_max":0,"o":"m -53 1193 l 153 1193 l 239 1281 l 326 1193 l 534 1193 l 320 1392 l 158 1392 z m 95 0 l 385 0 l 385 1093 l 95 1093 z "},"î":{"ha":480,"x_min":0,"x_max":0,"o":"m -53 1193 l 153 1193 l 239 1281 l 326 1193 l 534 1193 l 320 1392 l 158 1392 z m 95 0 l 385 0 l 385 1093 l 95 1093 z "},"Ï":{"ha":480,"x_min":0,"x_max":0,"o":"m 77 1194 b 176 1287 131 1194 176 1236 b 77 1381 176 1337 131 1381 b -23 1287 22 1381 -23 1337 b 77 1194 -23 1236 22 1194 z m 404 1194 b 504 1287 458 1194 504 1236 b 404 1381 504 1337 458 1381 b 304 1287 350 1381 304 1337 b 404 1194 304 1236 349 1194 z m 95 0 l 385 0 l 385 1093 l 95 1093 z "},"ï":{"ha":480,"x_min":0,"x_max":0,"o":"m 77 1194 b 176 1287 131 1194 176 1236 b 77 1381 176 1337 131 1381 b -23 1287 22 1381 -23 1337 b 77 1194 -23 1236 22 1194 z m 404 1194 b 504 1287 458 1194 504 1236 b 404 1381 504 1337 458 1381 b 304 1287 350 1381 304 1337 b 404 1194 304 1236 349 1194 z m 95 0 l 385 0 l 385 1093 l 95 1093 z "},"İ":{"ha":480,"x_min":0,"x_max":0,"o":"m 241 1193 b 356 1300 303 1193 356 1240 b 241 1409 356 1358 304 1409 b 126 1299 178 1409 126 1358 b 241 1193 126 1241 177 1193 z m 95 0 l 385 0 l 385 1093 l 95 1093 z "},"Ì":{"ha":480,"x_min":0,"x_max":0,"o":"m 230 1183 l 412 1183 l 296 1412 l 68 1412 z m 95 0 l 385 0 l 385 1093 l 95 1093 z "},"ì":{"ha":480,"x_min":0,"x_max":0,"o":"m 230 1183 l 412 1183 l 296 1412 l 68 1412 z m 95 0 l 385 0 l 385 1093 l 95 1093 z "},"Ī":{"ha":480,"x_min":0,"x_max":0,"o":"m 18 1221 l 463 1221 l 463 1358 l 18 1358 z m 95 0 l 385 0 l 385 1093 l 95 1093 z "},"ī":{"ha":480,"x_min":0,"x_max":0,"o":"m 18 1221 l 463 1221 l 463 1358 l 18 1358 z m 95 0 l 385 0 l 385 1093 l 95 1093 z "},"Į":{"ha":480,"x_min":0,"x_max":0,"o":"m 372 -189 b 291 -201 336 -197 306 -201 b 252 -157 263 -201 252 -180 b 385 0 252 -111 292 -69 l 385 1093 l 95 1093 l 95 0 l 195 0 b 50 -218 111 -43 50 -123 b 267 -387 50 -323 125 -387 b 398 -372 307 -387 350 -382 z "},"į":{"ha":480,"x_min":0,"x_max":0,"o":"m 372 -189 b 291 -201 336 -197 306 -201 b 252 -157 263 -201 252 -180 b 385 0 252 -111 292 -69 l 385 1093 l 95 1093 l 95 0 l 195 0 b 50 -218 111 -43 50 -123 b 267 -387 50 -323 125 -387 b 398 -372 307 -387 350 -382 z "},"J":{"ha":854,"x_min":0,"x_max":0,"o":"m 292 -18 l 300 -18 b 769 420 562 -18 769 173 l 764 1093 l 473 1093 l 479 422 b 299 256 479 334 399 256 l 294 256 b 175 297 241 256 214 267 l 28 58 b 292 -18 108 6 189 -18 z "},"j":{"ha":854,"x_min":0,"x_max":0,"o":"m 292 -18 l 300 -18 b 769 420 562 -18 769 173 l 764 1093 l 473 1093 l 479 422 b 299 256 479 334 399 256 l 294 256 b 175 297 241 256 214 267 l 28 58 b 292 -18 108 6 189 -18 z "},"K":{"ha":1023,"x_min":0,"x_max":0,"o":"m 1013 0 l 637 560 l 972 1093 l 638 1093 l 385 686 l 385 1093 l 95 1093 l 95 0 l 385 0 l 385 416 l 661 0 z "},"k":{"ha":1023,"x_min":0,"x_max":0,"o":"m 1013 0 l 637 560 l 972 1093 l 638 1093 l 385 686 l 385 1093 l 95 1093 l 95 0 l 385 0 l 385 416 l 661 0 z "},"Ķ":{"ha":1023,"x_min":0,"x_max":0,"o":"m 661 0 l 1013 0 l 637 560 l 972 1093 l 638 1093 l 385 686 l 385 1093 l 95 1093 l 95 0 l 385 0 l 385 416 z m 547 -77 b 420 -185 473 -77 420 -128 b 513 -276 420 -237 469 -276 b 521 -307 517 -282 521 -290 b 426 -385 521 -363 458 -385 b 498 -416 426 -395 455 -416 b 672 -218 606 -416 672 -315 b 547 -77 672 -133 621 -77 z "},"ķ":{"ha":1023,"x_min":0,"x_max":0,"o":"m 661 0 l 1013 0 l 637 560 l 972 1093 l 638 1093 l 385 686 l 385 1093 l 95 1093 l 95 0 l 385 0 l 385 416 z m 547 -77 b 420 -185 473 -77 420 -128 b 513 -276 420 -237 469 -276 b 521 -307 517 -282 521 -290 b 426 -385 521 -363 458 -385 b 498 -416 426 -395 455 -416 b 672 -218 606 -416 672 -315 b 547 -77 672 -133 621 -77 z "},"L":{"ha":832,"x_min":0,"x_max":0,"o":"m 385 273 l 385 1093 l 95 1093 l 95 0 l 804 0 l 804 273 z "},"l":{"ha":832,"x_min":0,"x_max":0,"o":"m 385 273 l 385 1093 l 95 1093 l 95 0 l 804 0 l 804 273 z "},"Ĺ":{"ha":832,"x_min":0,"x_max":0,"o":"m 652 1412 l 425 1412 l 308 1183 l 490 1183 z m 385 273 l 385 1093 l 95 1093 l 95 0 l 804 0 l 804 273 z "},"ĺ":{"ha":832,"x_min":0,"x_max":0,"o":"m 652 1412 l 425 1412 l 308 1183 l 490 1183 z m 385 273 l 385 1093 l 95 1093 l 95 0 l 804 0 l 804 273 z "},"Ľ":{"ha":832,"x_min":0,"x_max":0,"o":"m 715 1162 l 526 1162 l 478 844 l 634 844 z m 385 273 l 385 1093 l 95 1093 l 95 0 l 804 0 l 804 273 z "},"ľ":{"ha":832,"x_min":0,"x_max":0,"o":"m 715 1162 l 526 1162 l 478 844 l 634 844 z m 385 273 l 385 1093 l 95 1093 l 95 0 l 804 0 l 804 273 z "},"Ļ":{"ha":832,"x_min":0,"x_max":0,"o":"m 385 273 l 385 1093 l 95 1093 l 95 0 l 804 0 l 804 273 z m 425 -77 b 298 -185 351 -77 298 -128 b 391 -276 298 -237 347 -276 b 399 -307 395 -282 399 -290 b 304 -385 399 -363 336 -385 b 376 -416 304 -395 333 -416 b 550 -218 484 -416 550 -315 b 425 -77 550 -133 499 -77 z "},"ļ":{"ha":832,"x_min":0,"x_max":0,"o":"m 385 273 l 385 1093 l 95 1093 l 95 0 l 804 0 l 804 273 z m 425 -77 b 298 -185 351 -77 298 -128 b 391 -276 298 -237 347 -276 b 399 -307 395 -282 399 -290 b 304 -385 399 -363 336 -385 b 376 -416 304 -395 333 -416 b 550 -218 484 -416 550 -315 b 425 -77 550 -133 499 -77 z "},"Ł":{"ha":832,"x_min":0,"x_max":0,"o":"m 385 273 l 385 535 l 505 616 l 505 827 l 385 746 l 385 1093 l 95 1093 l 95 551 l -11 480 l -11 270 l 95 341 l 95 0 l 804 0 l 804 273 z "},"ł":{"ha":832,"x_min":0,"x_max":0,"o":"m 385 273 l 385 535 l 505 616 l 505 827 l 385 746 l 385 1093 l 95 1093 l 95 551 l -11 480 l -11 270 l 95 341 l 95 0 l 804 0 l 804 273 z "},"M":{"ha":1362,"x_min":0,"x_max":0,"o":"m 1150 1103 l 681 460 l 212 1103 l 95 1103 l 95 0 l 385 0 l 385 433 l 680 18 l 682 18 l 977 433 l 977 0 l 1267 0 l 1267 1103 z "},"m":{"ha":1362,"x_min":0,"x_max":0,"o":"m 1150 1103 l 681 460 l 212 1103 l 95 1103 l 95 0 l 385 0 l 385 433 l 680 18 l 682 18 l 977 433 l 977 0 l 1267 0 l 1267 1103 z "},"N":{"ha":1135,"x_min":0,"x_max":0,"o":"m 749 1095 l 749 562 l 189 1104 l 95 1104 l 95 -1 l 385 -1 l 385 534 l 947 -11 l 1040 -11 l 1040 1095 z "},"n":{"ha":1135,"x_min":0,"x_max":0,"o":"m 749 1095 l 749 562 l 189 1104 l 95 1104 l 95 -1 l 385 -1 l 385 534 l 947 -11 l 1040 -11 l 1040 1095 z "},"Ń":{"ha":1135,"x_min":0,"x_max":0,"o":"m 797 1412 l 570 1412 l 453 1183 l 635 1183 z m 749 1095 l 749 562 l 189 1104 l 95 1104 l 95 -1 l 385 -1 l 385 534 l 947 -11 l 1040 -11 l 1040 1095 z "},"ń":{"ha":1135,"x_min":0,"x_max":0,"o":"m 797 1412 l 570 1412 l 453 1183 l 635 1183 z m 749 1095 l 749 562 l 189 1104 l 95 1104 l 95 -1 l 385 -1 l 385 534 l 947 -11 l 1040 -11 l 1040 1095 z "},"Ň":{"ha":1135,"x_min":0,"x_max":0,"o":"m 647 1193 l 861 1392 l 652 1392 l 566 1303 l 480 1392 l 274 1392 l 485 1193 z m 749 1095 l 749 562 l 189 1104 l 95 1104 l 95 -1 l 385 -1 l 385 534 l 947 -11 l 1040 -11 l 1040 1095 z "},"ň":{"ha":1135,"x_min":0,"x_max":0,"o":"m 647 1193 l 861 1392 l 652 1392 l 566 1303 l 480 1392 l 274 1392 l 485 1193 z m 749 1095 l 749 562 l 189 1104 l 95 1104 l 95 -1 l 385 -1 l 385 534 l 947 -11 l 1040 -11 l 1040 1095 z "},"Ņ":{"ha":1135,"x_min":0,"x_max":0,"o":"m 749 1095 l 749 562 l 189 1104 l 95 1104 l 95 -1 l 385 -1 l 385 534 l 947 -11 l 1040 -11 l 1040 1095 z m 570 -77 b 444 -185 496 -77 444 -128 b 536 -276 444 -237 492 -276 b 544 -307 541 -282 544 -290 b 449 -385 544 -363 481 -385 b 522 -416 449 -395 478 -416 b 695 -218 629 -416 695 -315 b 570 -77 695 -133 644 -77 z "},"ņ":{"ha":1135,"x_min":0,"x_max":0,"o":"m 749 1095 l 749 562 l 189 1104 l 95 1104 l 95 -1 l 385 -1 l 385 534 l 947 -11 l 1040 -11 l 1040 1095 z m 570 -77 b 444 -185 496 -77 444 -128 b 536 -276 444 -237 492 -276 b 544 -307 541 -282 544 -290 b 449 -385 544 -363 481 -385 b 522 -416 449 -395 478 -416 b 695 -218 629 -416 695 -315 b 570 -77 695 -133 644 -77 z "},"Ŋ":{"ha":1135,"x_min":0,"x_max":0,"o":"m 749 1095 l 749 562 l 189 1104 l 95 1104 l 95 -1 l 385 -1 l 385 534 l 766 165 l 766 -33 b 642 -238 766 -136 715 -197 l 797 -357 b 1040 -29 946 -295 1040 -182 l 1040 1095 z "},"ŋ":{"ha":1135,"x_min":0,"x_max":0,"o":"m 749 1095 l 749 562 l 189 1104 l 95 1104 l 95 -1 l 385 -1 l 385 534 l 766 165 l 766 -33 b 642 -238 766 -136 715 -197 l 797 -357 b 1040 -29 946 -295 1040 -182 l 1040 1095 z "},"Ñ":{"ha":1135,"x_min":0,"x_max":0,"o":"m 463 1284 b 674 1196 523 1284 560 1196 b 872 1378 747 1196 843 1233 l 741 1419 b 673 1335 729 1372 711 1335 b 461 1422 614 1335 574 1422 b 263 1240 384 1422 292 1382 l 395 1200 b 463 1284 406 1246 424 1284 z m 749 1095 l 749 562 l 189 1104 l 95 1104 l 95 -1 l 385 -1 l 385 534 l 947 -11 l 1040 -11 l 1040 1095 z "},"ñ":{"ha":1135,"x_min":0,"x_max":0,"o":"m 463 1284 b 674 1196 523 1284 560 1196 b 872 1378 747 1196 843 1233 l 741 1419 b 673 1335 729 1372 711 1335 b 461 1422 614 1335 574 1422 b 263 1240 384 1422 292 1382 l 395 1200 b 463 1284 406 1246 424 1284 z m 749 1095 l 749 562 l 189 1104 l 95 1104 l 95 -1 l 385 -1 l 385 534 l 947 -11 l 1040 -11 l 1040 1095 z "},"O":{"ha":1295,"x_min":0,"x_max":0,"o":"m 647 -28 b 1248 545 987 -28 1248 220 b 648 1122 1248 873 987 1122 b 47 545 308 1122 47 873 b 647 -28 47 220 307 -28 z m 648 250 b 341 547 474 250 341 379 b 648 846 341 716 474 846 b 954 547 821 846 954 716 b 648 250 954 379 821 250 z "},"o":{"ha":1295,"x_min":0,"x_max":0,"o":"m 647 -28 b 1248 545 987 -28 1248 220 b 648 1122 1248 873 987 1122 b 47 545 308 1122 47 873 b 647 -28 47 220 307 -28 z m 648 250 b 341 547 474 250 341 379 b 648 846 341 716 474 846 b 954 547 821 846 954 716 b 648 250 954 379 821 250 z "},"Ó":{"ha":1295,"x_min":0,"x_max":0,"o":"m 715 1183 l 877 1412 l 650 1412 l 533 1183 z m 647 -28 b 1248 545 987 -28 1248 220 b 648 1122 1248 873 987 1122 b 47 545 308 1122 47 873 b 647 -28 47 220 307 -28 z m 648 250 b 341 547 474 250 341 379 b 648 846 341 716 474 846 b 954 547 821 846 954 716 b 648 250 954 379 821 250 z "},"ó":{"ha":1295,"x_min":0,"x_max":0,"o":"m 715 1183 l 877 1412 l 650 1412 l 533 1183 z m 647 -28 b 1248 545 987 -28 1248 220 b 648 1122 1248 873 987 1122 b 47 545 308 1122 47 873 b 647 -28 47 220 307 -28 z m 648 250 b 341 547 474 250 341 379 b 648 846 341 716 474 846 b 954 547 821 846 954 716 b 648 250 954 379 821 250 z "},"Ô":{"ha":1295,"x_min":0,"x_max":0,"o":"m 355 1193 l 561 1193 l 647 1281 l 733 1193 l 941 1193 l 728 1392 l 566 1392 z m 647 -28 b 1248 545 987 -28 1248 220 b 648 1122 1248 873 987 1122 b 47 545 308 1122 47 873 b 647 -28 47 220 307 -28 z m 648 250 b 341 547 474 250 341 379 b 648 846 341 716 474 846 b 954 547 821 846 954 716 b 648 250 954 379 821 250 z "},"ô":{"ha":1295,"x_min":0,"x_max":0,"o":"m 355 1193 l 561 1193 l 647 1281 l 733 1193 l 941 1193 l 728 1392 l 566 1392 z m 647 -28 b 1248 545 987 -28 1248 220 b 648 1122 1248 873 987 1122 b 47 545 308 1122 47 873 b 647 -28 47 220 307 -28 z m 648 250 b 341 547 474 250 341 379 b 648 846 341 716 474 846 b 954 547 821 846 954 716 b 648 250 954 379 821 250 z "},"Ö":{"ha":1295,"x_min":0,"x_max":0,"o":"m 485 1194 b 584 1287 538 1194 584 1236 b 485 1381 584 1337 538 1381 b 385 1287 430 1381 385 1337 b 485 1194 385 1236 430 1194 z m 811 1194 b 911 1287 866 1194 911 1236 b 811 1381 911 1337 866 1381 b 712 1287 758 1381 712 1337 b 811 1194 712 1236 757 1194 z m 647 -28 b 1248 545 987 -28 1248 220 b 648 1122 1248 873 987 1122 b 47 545 308 1122 47 873 b 647 -28 47 220 307 -28 z m 648 250 b 341 547 474 250 341 379 b 648 846 341 716 474 846 b 954 547 821 846 954 716 b 648 250 954 379 821 250 z "},"ö":{"ha":1295,"x_min":0,"x_max":0,"o":"m 485 1194 b 584 1287 538 1194 584 1236 b 485 1381 584 1337 538 1381 b 385 1287 430 1381 385 1337 b 485 1194 385 1236 430 1194 z m 811 1194 b 911 1287 866 1194 911 1236 b 811 1381 911 1337 866 1381 b 712 1287 758 1381 712 1337 b 811 1194 712 1236 757 1194 z m 647 -28 b 1248 545 987 -28 1248 220 b 648 1122 1248 873 987 1122 b 47 545 308 1122 47 873 b 647 -28 47 220 307 -28 z m 648 250 b 341 547 474 250 341 379 b 648 846 341 716 474 846 b 954 547 821 846 954 716 b 648 250 954 379 821 250 z "},"Ò":{"ha":1295,"x_min":0,"x_max":0,"o":"m 637 1183 l 820 1183 l 703 1412 l 476 1412 z m 647 -28 b 1248 545 987 -28 1248 220 b 648 1122 1248 873 987 1122 b 47 545 308 1122 47 873 b 647 -28 47 220 307 -28 z m 648 250 b 341 547 474 250 341 379 b 648 846 341 716 474 846 b 954 547 821 846 954 716 b 648 250 954 379 821 250 z "},"ò":{"ha":1295,"x_min":0,"x_max":0,"o":"m 637 1183 l 820 1183 l 703 1412 l 476 1412 z m 647 -28 b 1248 545 987 -28 1248 220 b 648 1122 1248 873 987 1122 b 47 545 308 1122 47 873 b 647 -28 47 220 307 -28 z m 648 250 b 341 547 474 250 341 379 b 648 846 341 716 474 846 b 954 547 821 846 954 716 b 648 250 954 379 821 250 z "},"Ő":{"ha":1295,"x_min":0,"x_max":0,"o":"m 380 1183 l 543 1183 l 676 1412 l 473 1412 z m 642 1183 l 814 1183 l 1010 1412 l 783 1412 z m 647 -28 b 1248 545 987 -28 1248 220 b 648 1122 1248 873 987 1122 b 47 545 308 1122 47 873 b 647 -28 47 220 307 -28 z m 648 250 b 341 547 474 250 341 379 b 648 846 341 716 474 846 b 954 547 821 846 954 716 b 648 250 954 379 821 250 z "},"ő":{"ha":1295,"x_min":0,"x_max":0,"o":"m 380 1183 l 543 1183 l 676 1412 l 473 1412 z m 642 1183 l 814 1183 l 1010 1412 l 783 1412 z m 647 -28 b 1248 545 987 -28 1248 220 b 648 1122 1248 873 987 1122 b 47 545 308 1122 47 873 b 647 -28 47 220 307 -28 z m 648 250 b 341 547 474 250 341 379 b 648 846 341 716 474 846 b 954 547 821 846 954 716 b 648 250 954 379 821 250 z "},"Ō":{"ha":1295,"x_min":0,"x_max":0,"o":"m 426 1221 l 870 1221 l 870 1358 l 426 1358 z m 647 -28 b 1248 545 987 -28 1248 220 b 648 1122 1248 873 987 1122 b 47 545 308 1122 47 873 b 647 -28 47 220 307 -28 z m 648 250 b 341 547 474 250 341 379 b 648 846 341 716 474 846 b 954 547 821 846 954 716 b 648 250 954 379 821 250 z "},"ō":{"ha":1295,"x_min":0,"x_max":0,"o":"m 426 1221 l 870 1221 l 870 1358 l 426 1358 z m 647 -28 b 1248 545 987 -28 1248 220 b 648 1122 1248 873 987 1122 b 47 545 308 1122 47 873 b 647 -28 47 220 307 -28 z m 648 250 b 341 547 474 250 341 379 b 648 846 341 716 474 846 b 954 547 821 846 954 716 b 648 250 954 379 821 250 z "},"Ø":{"ha":1295,"x_min":0,"x_max":0,"o":"m 1067 965 l 1173 1118 l 941 1118 l 907 1069 b 648 1122 829 1103 741 1122 b 47 545 308 1122 47 873 b 246 113 47 370 123 217 l 129 -56 l 361 -56 l 411 16 b 647 -28 483 -12 562 -28 b 1248 545 987 -28 1248 220 b 1067 965 1248 713 1179 861 z m 341 547 b 648 846 341 716 474 846 b 743 832 681 846 713 842 l 412 353 b 341 547 368 405 341 473 z m 648 250 b 578 257 623 250 600 252 l 899 722 b 954 547 934 673 954 613 b 648 250 954 379 821 250 z "},"ø":{"ha":1295,"x_min":0,"x_max":0,"o":"m 1067 965 l 1173 1118 l 941 1118 l 907 1069 b 648 1122 829 1103 741 1122 b 47 545 308 1122 47 873 b 246 113 47 370 123 217 l 129 -56 l 361 -56 l 411 16 b 647 -28 483 -12 562 -28 b 1248 545 987 -28 1248 220 b 1067 965 1248 713 1179 861 z m 341 547 b 648 846 341 716 474 846 b 743 832 681 846 713 842 l 412 353 b 341 547 368 405 341 473 z m 648 250 b 578 257 623 250 600 252 l 899 722 b 954 547 934 673 954 613 b 648 250 954 379 821 250 z "},"Õ":{"ha":1295,"x_min":0,"x_max":0,"o":"m 475 1200 b 543 1284 486 1246 504 1284 b 754 1196 603 1284 640 1196 b 952 1378 827 1196 923 1233 l 821 1419 b 753 1335 809 1372 791 1335 b 541 1422 694 1335 654 1422 b 343 1240 464 1422 372 1382 z m 647 -28 b 1248 545 987 -28 1248 220 b 648 1122 1248 873 987 1122 b 47 545 308 1122 47 873 b 647 -28 47 220 307 -28 z m 648 250 b 341 547 474 250 341 379 b 648 846 341 716 474 846 b 954 547 821 846 954 716 b 648 250 954 379 821 250 z "},"õ":{"ha":1295,"x_min":0,"x_max":0,"o":"m 475 1200 b 543 1284 486 1246 504 1284 b 754 1196 603 1284 640 1196 b 952 1378 827 1196 923 1233 l 821 1419 b 753 1335 809 1372 791 1335 b 541 1422 694 1335 654 1422 b 343 1240 464 1422 372 1382 z m 647 -28 b 1248 545 987 -28 1248 220 b 648 1122 1248 873 987 1122 b 47 545 308 1122 47 873 b 647 -28 47 220 307 -28 z m 648 250 b 341 547 474 250 341 379 b 648 846 341 716 474 846 b 954 547 821 846 954 716 b 648 250 954 379 821 250 z "},"Œ":{"ha":1776,"x_min":0,"x_max":0,"o":"m 1710 823 l 1710 1093 l 1001 1093 l 1001 980 b 641 1122 907 1069 782 1122 b 47 545 308 1122 47 873 b 640 -28 47 220 307 -28 b 1001 114 782 -28 907 25 l 1001 0 l 1710 0 l 1710 272 l 1288 272 l 1288 429 l 1634 429 l 1634 671 l 1288 671 l 1288 823 z m 648 250 b 341 547 474 250 341 379 b 648 846 341 716 474 846 b 954 547 821 846 954 716 b 648 250 954 379 821 250 z "},"œ":{"ha":1776,"x_min":0,"x_max":0,"o":"m 1710 823 l 1710 1093 l 1001 1093 l 1001 980 b 641 1122 907 1069 782 1122 b 47 545 308 1122 47 873 b 640 -28 47 220 307 -28 b 1001 114 782 -28 907 25 l 1001 0 l 1710 0 l 1710 272 l 1288 272 l 1288 429 l 1634 429 l 1634 671 l 1288 671 l 1288 823 z m 648 250 b 341 547 474 250 341 379 b 648 846 341 716 474 846 b 954 547 821 846 954 716 b 648 250 954 379 821 250 z "},"P":{"ha":949,"x_min":0,"x_max":0,"o":"m 95 0 l 385 0 l 385 322 l 508 322 b 921 710 737 322 921 499 b 508 1093 921 924 733 1093 l 95 1093 z m 508 589 l 385 590 l 385 825 l 508 825 b 641 709 585 825 641 775 b 508 589 641 642 586 589 z "},"p":{"ha":949,"x_min":0,"x_max":0,"o":"m 95 0 l 385 0 l 385 322 l 508 322 b 921 710 737 322 921 499 b 508 1093 921 924 733 1093 l 95 1093 z m 508 589 l 385 590 l 385 825 l 508 825 b 641 709 585 825 641 775 b 508 589 641 642 586 589 z "},"Þ":{"ha":972,"x_min":0,"x_max":0,"o":"m 95 0 l 385 0 l 385 180 l 531 180 b 924 553 754 180 924 345 b 531 927 924 762 754 927 l 385 927 l 385 1093 l 95 1093 z m 385 431 l 385 677 l 531 677 b 658 553 603 677 658 621 b 531 431 658 486 602 431 z "},"þ":{"ha":972,"x_min":0,"x_max":0,"o":"m 95 0 l 385 0 l 385 180 l 531 180 b 924 553 754 180 924 345 b 531 927 924 762 754 927 l 385 927 l 385 1093 l 95 1093 z m 385 431 l 385 677 l 531 677 b 658 553 603 677 658 621 b 531 431 658 486 602 431 z "},"Q":{"ha":1301,"x_min":0,"x_max":0,"o":"m 1252 47 b 1002 77 1164 49 1076 60 b 1248 545 1152 180 1248 348 b 648 1122 1248 873 987 1122 b 47 545 308 1122 47 873 b 647 -28 47 220 307 -28 b 729 -23 675 -28 702 -26 b 1153 -212 828 -116 955 -197 z m 341 547 b 648 846 341 716 474 846 b 954 547 821 846 954 716 b 648 250 954 379 821 250 b 341 547 474 250 341 379 z "},"q":{"ha":1301,"x_min":0,"x_max":0,"o":"m 1252 47 b 1002 77 1164 49 1076 60 b 1248 545 1152 180 1248 348 b 648 1122 1248 873 987 1122 b 47 545 308 1122 47 873 b 647 -28 47 220 307 -28 b 729 -23 675 -28 702 -26 b 1153 -212 828 -116 955 -197 z m 341 547 b 648 846 341 716 474 846 b 954 547 821 846 954 716 b 648 250 954 379 821 250 b 341 547 474 250 341 379 z "},"R":{"ha":1028,"x_min":0,"x_max":0,"o":"m 1019 0 l 726 439 b 915 738 833 488 915 602 b 510 1093 915 934 746 1093 l 95 1093 l 96 0 l 387 0 l 387 475 l 679 0 z m 385 832 l 504 832 b 622 722 565 832 622 790 b 504 612 622 655 566 612 l 385 613 z "},"r":{"ha":1028,"x_min":0,"x_max":0,"o":"m 1019 0 l 726 439 b 915 738 833 488 915 602 b 510 1093 915 934 746 1093 l 95 1093 l 96 0 l 387 0 l 387 475 l 679 0 z m 385 832 l 504 832 b 622 722 565 832 622 790 b 504 612 622 655 566 612 l 385 613 z "},"Ŕ":{"ha":1028,"x_min":0,"x_max":0,"o":"m 747 1412 l 520 1412 l 404 1183 l 586 1183 z m 1019 0 l 726 439 b 915 738 833 488 915 602 b 510 1093 915 934 746 1093 l 95 1093 l 96 0 l 387 0 l 387 475 l 679 0 z m 385 832 l 504 832 b 622 722 565 832 622 790 b 504 612 622 655 566 612 l 385 613 z "},"ŕ":{"ha":1028,"x_min":0,"x_max":0,"o":"m 747 1412 l 520 1412 l 404 1183 l 586 1183 z m 1019 0 l 726 439 b 915 738 833 488 915 602 b 510 1093 915 934 746 1093 l 95 1093 l 96 0 l 387 0 l 387 475 l 679 0 z m 385 832 l 504 832 b 622 722 565 832 622 790 b 504 612 622 655 566 612 l 385 613 z "},"Ř":{"ha":1028,"x_min":0,"x_max":0,"o":"m 597 1193 l 811 1392 l 603 1392 l 517 1303 l 431 1392 l 224 1392 l 435 1193 z m 1019 0 l 726 439 b 915 738 833 488 915 602 b 510 1093 915 934 746 1093 l 95 1093 l 96 0 l 387 0 l 387 475 l 679 0 z m 385 832 l 504 832 b 622 722 565 832 622 790 b 504 612 622 655 566 612 l 385 613 z "},"ř":{"ha":1028,"x_min":0,"x_max":0,"o":"m 597 1193 l 811 1392 l 603 1392 l 517 1303 l 431 1392 l 224 1392 l 435 1193 z m 1019 0 l 726 439 b 915 738 833 488 915 602 b 510 1093 915 934 746 1093 l 95 1093 l 96 0 l 387 0 l 387 475 l 679 0 z m 385 832 l 504 832 b 622 722 565 832 622 790 b 504 612 622 655 566 612 l 385 613 z "},"Ŗ":{"ha":1028,"x_min":0,"x_max":0,"o":"m 726 439 b 915 738 833 488 915 602 b 510 1093 915 934 746 1093 l 95 1093 l 96 0 l 387 0 l 387 475 l 679 0 l 1019 0 z m 385 832 l 504 832 b 622 722 565 832 622 790 b 504 612 622 655 566 612 l 385 613 z m 520 -77 b 394 -185 447 -77 394 -128 b 486 -276 394 -237 442 -276 b 494 -307 491 -282 494 -290 b 399 -385 494 -363 432 -385 b 472 -416 399 -395 429 -416 b 646 -218 579 -416 646 -315 b 520 -77 646 -133 595 -77 z "},"ŗ":{"ha":1028,"x_min":0,"x_max":0,"o":"m 726 439 b 915 738 833 488 915 602 b 510 1093 915 934 746 1093 l 95 1093 l 96 0 l 387 0 l 387 475 l 679 0 l 1019 0 z m 385 832 l 504 832 b 622 722 565 832 622 790 b 504 612 622 655 566 612 l 385 613 z m 520 -77 b 394 -185 447 -77 394 -128 b 486 -276 394 -237 442 -276 b 494 -307 491 -282 494 -290 b 399 -385 494 -363 432 -385 b 472 -416 399 -395 429 -416 b 646 -218 579 -416 646 -315 b 520 -77 646 -133 595 -77 z "},"S":{"ha":887,"x_min":0,"x_max":0,"o":"m 436 -15 b 849 323 655 -15 849 115 b 565 661 849 484 736 589 b 370 777 447 710 370 726 b 472 844 370 814 412 844 b 641 762 524 844 608 819 l 808 923 b 469 1109 766 1031 635 1109 b 81 785 261 1109 81 975 b 338 470 81 621 200 530 b 557 317 446 422 557 373 b 435 250 557 272 497 250 b 214 357 344 250 259 290 l 38 185 b 436 -15 93 64 256 -15 z "},"s":{"ha":887,"x_min":0,"x_max":0,"o":"m 436 -15 b 849 323 655 -15 849 115 b 565 661 849 484 736 589 b 370 777 447 710 370 726 b 472 844 370 814 412 844 b 641 762 524 844 608 819 l 808 923 b 469 1109 766 1031 635 1109 b 81 785 261 1109 81 975 b 338 470 81 621 200 530 b 557 317 446 422 557 373 b 435 250 557 272 497 250 b 214 357 344 250 259 290 l 38 185 b 436 -15 93 64 256 -15 z "},"Ś":{"ha":887,"x_min":0,"x_max":0,"o":"m 518 1183 l 680 1412 l 452 1412 l 336 1183 z m 436 -15 b 849 323 655 -15 849 115 b 565 661 849 484 736 589 b 370 777 447 710 370 726 b 472 844 370 814 412 844 b 641 762 524 844 608 819 l 808 923 b 469 1109 766 1031 635 1109 b 81 785 261 1109 81 975 b 338 470 81 621 200 530 b 557 317 446 422 557 373 b 435 250 557 272 497 250 b 214 357 344 250 259 290 l 38 185 b 436 -15 93 64 256 -15 z "},"ś":{"ha":887,"x_min":0,"x_max":0,"o":"m 518 1183 l 680 1412 l 452 1412 l 336 1183 z m 436 -15 b 849 323 655 -15 849 115 b 565 661 849 484 736 589 b 370 777 447 710 370 726 b 472 844 370 814 412 844 b 641 762 524 844 608 819 l 808 923 b 469 1109 766 1031 635 1109 b 81 785 261 1109 81 975 b 338 470 81 621 200 530 b 557 317 446 422 557 373 b 435 250 557 272 497 250 b 214 357 344 250 259 290 l 38 185 b 436 -15 93 64 256 -15 z "},"Š":{"ha":887,"x_min":0,"x_max":0,"o":"m 157 1392 l 368 1193 l 530 1193 l 743 1392 l 535 1392 l 449 1303 l 363 1392 z m 436 -15 b 849 323 655 -15 849 115 b 565 661 849 484 736 589 b 370 777 447 710 370 726 b 472 844 370 814 412 844 b 641 762 524 844 608 819 l 808 923 b 469 1109 766 1031 635 1109 b 81 785 261 1109 81 975 b 338 470 81 621 200 530 b 557 317 446 422 557 373 b 435 250 557 272 497 250 b 214 357 344 250 259 290 l 38 185 b 436 -15 93 64 256 -15 z "},"š":{"ha":887,"x_min":0,"x_max":0,"o":"m 157 1392 l 368 1193 l 530 1193 l 743 1392 l 535 1392 l 449 1303 l 363 1392 z m 436 -15 b 849 323 655 -15 849 115 b 565 661 849 484 736 589 b 370 777 447 710 370 726 b 472 844 370 814 412 844 b 641 762 524 844 608 819 l 808 923 b 469 1109 766 1031 635 1109 b 81 785 261 1109 81 975 b 338 470 81 621 200 530 b 557 317 446 422 557 373 b 435 250 557 272 497 250 b 214 357 344 250 259 290 l 38 185 b 436 -15 93 64 256 -15 z "},"Ş":{"ha":887,"x_min":0,"x_max":0,"o":"m 849 323 b 565 661 849 484 736 589 b 370 777 447 710 370 726 b 472 844 370 814 412 844 b 641 762 524 844 608 819 l 808 923 b 469 1109 766 1031 635 1109 b 81 785 261 1109 81 975 b 338 470 81 621 200 530 b 557 317 446 422 557 373 b 435 250 557 272 497 250 b 214 357 344 250 259 290 l 38 185 b 389 -13 88 75 228 -1 l 308 -113 l 340 -154 b 373 -149 353 -151 364 -149 b 416 -180 409 -149 416 -169 b 235 -233 416 -210 367 -233 l 302 -389 b 602 -174 466 -391 602 -286 b 494 -58 602 -109 555 -58 b 477 -59 488 -58 484 -59 l 519 -9 b 849 323 702 20 849 142 z "},"ş":{"ha":887,"x_min":0,"x_max":0,"o":"m 849 323 b 565 661 849 484 736 589 b 370 777 447 710 370 726 b 472 844 370 814 412 844 b 641 762 524 844 608 819 l 808 923 b 469 1109 766 1031 635 1109 b 81 785 261 1109 81 975 b 338 470 81 621 200 530 b 557 317 446 422 557 373 b 435 250 557 272 497 250 b 214 357 344 250 259 290 l 38 185 b 389 -13 88 75 228 -1 l 308 -113 l 340 -154 b 373 -149 353 -151 364 -149 b 416 -180 409 -149 416 -169 b 235 -233 416 -210 367 -233 l 302 -389 b 602 -174 466 -391 602 -286 b 494 -58 602 -109 555 -58 b 477 -59 488 -58 484 -59 l 519 -9 b 849 323 702 20 849 142 z "},"Ș":{"ha":887,"x_min":0,"x_max":0,"o":"m 436 -15 b 849 323 655 -15 849 115 b 565 661 849 484 736 589 b 370 777 447 710 370 726 b 472 844 370 814 412 844 b 641 762 524 844 608 819 l 808 923 b 469 1109 766 1031 635 1109 b 81 785 261 1109 81 975 b 338 470 81 621 200 530 b 557 317 446 422 557 373 b 435 250 557 272 497 250 b 214 357 344 250 259 290 l 38 185 b 436 -15 93 64 256 -15 z m 404 -416 b 578 -218 511 -416 578 -315 b 452 -77 578 -133 527 -77 b 326 -185 379 -77 326 -128 b 418 -276 326 -237 374 -276 b 427 -307 423 -282 427 -290 b 332 -385 427 -363 364 -385 b 404 -416 332 -395 361 -416 z "},"ș":{"ha":887,"x_min":0,"x_max":0,"o":"m 436 -15 b 849 323 655 -15 849 115 b 565 661 849 484 736 589 b 370 777 447 710 370 726 b 472 844 370 814 412 844 b 641 762 524 844 608 819 l 808 923 b 469 1109 766 1031 635 1109 b 81 785 261 1109 81 975 b 338 470 81 621 200 530 b 557 317 446 422 557 373 b 435 250 557 272 497 250 b 214 357 344 250 259 290 l 38 185 b 436 -15 93 64 256 -15 z m 404 -416 b 578 -218 511 -416 578 -315 b 452 -77 578 -133 527 -77 b 326 -185 379 -77 326 -128 b 418 -276 326 -237 374 -276 b 427 -307 423 -282 427 -290 b 332 -385 427 -363 364 -385 b 404 -416 332 -395 361 -416 z "},"ß":{"ha":1337,"x_min":0,"x_max":0,"o":"m 1059 663 b 905 724 1006 689 952 711 l 1112 981 b 654 1124 1007 1063 827 1124 b 95 652 355 1124 95 972 l 95 0 l 380 0 l 380 652 b 612 877 380 814 515 877 b 724 852 649 877 687 869 l 554 597 b 842 481 633 581 767 519 b 1023 305 937 431 1023 367 b 907 229 1023 258 972 229 b 696 359 808 229 737 292 l 512 184 b 902 -32 593 41 726 -32 b 1309 318 1154 -32 1309 118 b 1059 663 1309 459 1232 575 z "},"ẞ":{"ha":1337,"x_min":0,"x_max":0,"o":"m 1059 663 b 905 724 1006 689 952 711 l 1112 981 b 654 1124 1007 1063 827 1124 b 95 652 355 1124 95 972 l 95 0 l 380 0 l 380 652 b 612 877 380 814 515 877 b 724 852 649 877 687 869 l 554 597 b 842 481 633 581 767 519 b 1023 305 937 431 1023 367 b 907 229 1023 258 972 229 b 696 359 808 229 737 292 l 512 184 b 902 -32 593 41 726 -32 b 1309 318 1154 -32 1309 118 b 1059 663 1309 459 1232 575 z "},"Ə":{"ha":1264,"x_min":0,"x_max":0,"o":"m 633 -8 b 1217 545 956 -8 1217 233 b 628 1101 1217 831 988 1102 b 254 969 484 1101 346 1054 l 428 788 b 629 850 498 833 564 850 b 916 665 762 850 870 773 l 61 665 b 47 549 52 638 47 589 b 633 -8 47 234 309 -8 z m 632 242 b 347 427 498 242 386 330 l 916 427 b 632 242 871 318 753 242 z "},"ə":{"ha":1264,"x_min":0,"x_max":0,"o":"m 633 -8 b 1217 545 956 -8 1217 233 b 628 1101 1217 831 988 1102 b 254 969 484 1101 346 1054 l 428 788 b 629 850 498 833 564 850 b 916 665 762 850 870 773 l 61 665 b 47 549 52 638 47 589 b 633 -8 47 234 309 -8 z m 632 242 b 347 427 498 242 386 330 l 916 427 b 632 242 871 318 753 242 z "},"T":{"ha":872,"x_min":0,"x_max":0,"o":"m 844 1093 l 28 1093 l 28 822 l 291 822 l 291 0 l 582 0 l 582 822 l 844 822 z "},"t":{"ha":872,"x_min":0,"x_max":0,"o":"m 844 1093 l 28 1093 l 28 822 l 291 822 l 291 0 l 582 0 l 582 822 l 844 822 z "},"Ŧ":{"ha":872,"x_min":0,"x_max":0,"o":"m 844 822 l 844 1093 l 28 1093 l 28 822 l 291 822 l 291 625 l 139 625 l 139 469 l 291 469 l 291 0 l 582 0 l 582 469 l 733 469 l 733 625 l 582 625 l 582 822 z "},"ŧ":{"ha":872,"x_min":0,"x_max":0,"o":"m 844 822 l 844 1093 l 28 1093 l 28 822 l 291 822 l 291 625 l 139 625 l 139 469 l 291 469 l 291 0 l 582 0 l 582 469 l 733 469 l 733 625 l 582 625 l 582 822 z "},"Ť":{"ha":872,"x_min":0,"x_max":0,"o":"m 515 1193 l 729 1392 l 521 1392 l 435 1303 l 349 1392 l 142 1392 l 353 1193 z m 844 1093 l 28 1093 l 28 822 l 291 822 l 291 0 l 582 0 l 582 822 l 844 822 z "},"ť":{"ha":872,"x_min":0,"x_max":0,"o":"m 515 1193 l 729 1392 l 521 1392 l 435 1303 l 349 1392 l 142 1392 l 353 1193 z m 844 1093 l 28 1093 l 28 822 l 291 822 l 291 0 l 582 0 l 582 822 l 844 822 z "},"Ţ":{"ha":872,"x_min":0,"x_max":0,"o":"m 582 0 l 582 822 l 844 822 l 844 1093 l 28 1093 l 28 822 l 291 822 l 291 0 l 385 0 l 294 -113 l 326 -154 b 359 -149 339 -151 350 -149 b 401 -180 395 -149 401 -169 b 221 -233 401 -210 353 -233 l 288 -389 b 588 -174 452 -391 588 -286 b 479 -58 588 -109 541 -58 b 463 -59 473 -58 469 -59 l 513 0 z "},"ţ":{"ha":872,"x_min":0,"x_max":0,"o":"m 582 0 l 582 822 l 844 822 l 844 1093 l 28 1093 l 28 822 l 291 822 l 291 0 l 385 0 l 294 -113 l 326 -154 b 359 -149 339 -151 350 -149 b 401 -180 395 -149 401 -169 b 221 -233 401 -210 353 -233 l 288 -389 b 588 -174 452 -391 588 -286 b 479 -58 588 -109 541 -58 b 463 -59 473 -58 469 -59 l 513 0 z "},"Ț":{"ha":872,"x_min":0,"x_max":0,"o":"m 844 1093 l 28 1093 l 28 822 l 291 822 l 291 0 l 582 0 l 582 822 l 844 822 z m 438 -77 b 312 -185 365 -77 312 -128 b 404 -276 312 -237 360 -276 b 412 -307 409 -282 412 -290 b 317 -385 412 -363 350 -385 b 390 -416 317 -395 347 -416 b 564 -218 497 -416 564 -315 b 438 -77 564 -133 513 -77 z "},"ț":{"ha":872,"x_min":0,"x_max":0,"o":"m 844 1093 l 28 1093 l 28 822 l 291 822 l 291 0 l 582 0 l 582 822 l 844 822 z m 438 -77 b 312 -185 365 -77 312 -128 b 404 -276 312 -237 360 -276 b 412 -307 409 -282 412 -290 b 317 -385 412 -363 350 -385 b 390 -416 317 -395 347 -416 b 564 -218 497 -416 564 -315 b 438 -77 564 -133 513 -77 z "},"U":{"ha":1078,"x_min":0,"x_max":0,"o":"m 539 -31 b 993 397 789 -31 993 146 l 993 1093 l 701 1093 l 701 398 b 538 247 701 309 621 247 b 378 398 456 247 378 307 l 378 1093 l 85 1093 l 85 397 b 539 -31 85 146 289 -31 z "},"u":{"ha":1078,"x_min":0,"x_max":0,"o":"m 539 -31 b 993 397 789 -31 993 146 l 993 1093 l 701 1093 l 701 398 b 538 247 701 309 621 247 b 378 398 456 247 378 307 l 378 1093 l 85 1093 l 85 397 b 539 -31 85 146 289 -31 z "},"Ú":{"ha":1078,"x_min":0,"x_max":0,"o":"m 607 1183 l 768 1412 l 541 1412 l 425 1183 z m 539 -31 b 993 397 789 -31 993 146 l 993 1093 l 701 1093 l 701 398 b 538 247 701 309 621 247 b 378 398 456 247 378 307 l 378 1093 l 85 1093 l 85 397 b 539 -31 85 146 289 -31 z "},"ú":{"ha":1078,"x_min":0,"x_max":0,"o":"m 607 1183 l 768 1412 l 541 1412 l 425 1183 z m 539 -31 b 993 397 789 -31 993 146 l 993 1093 l 701 1093 l 701 398 b 538 247 701 309 621 247 b 378 398 456 247 378 307 l 378 1093 l 85 1093 l 85 397 b 539 -31 85 146 289 -31 z "},"Û":{"ha":1078,"x_min":0,"x_max":0,"o":"m 245 1193 l 452 1193 l 538 1281 l 624 1193 l 832 1193 l 618 1392 l 456 1392 z m 539 -31 b 993 397 789 -31 993 146 l 993 1093 l 701 1093 l 701 398 b 538 247 701 309 621 247 b 378 398 456 247 378 307 l 378 1093 l 85 1093 l 85 397 b 539 -31 85 146 289 -31 z "},"û":{"ha":1078,"x_min":0,"x_max":0,"o":"m 245 1193 l 452 1193 l 538 1281 l 624 1193 l 832 1193 l 618 1392 l 456 1392 z m 539 -31 b 993 397 789 -31 993 146 l 993 1093 l 701 1093 l 701 398 b 538 247 701 309 621 247 b 378 398 456 247 378 307 l 378 1093 l 85 1093 l 85 397 b 539 -31 85 146 289 -31 z "},"Ü":{"ha":1078,"x_min":0,"x_max":0,"o":"m 376 1194 b 475 1287 429 1194 475 1236 b 376 1381 475 1337 429 1381 b 275 1287 321 1381 275 1337 b 376 1194 275 1236 321 1194 z m 702 1194 b 802 1287 757 1194 802 1236 b 702 1381 802 1337 757 1381 b 603 1287 648 1381 603 1337 b 702 1194 603 1236 648 1194 z m 539 -31 b 993 397 789 -31 993 146 l 993 1093 l 701 1093 l 701 398 b 538 247 701 309 621 247 b 378 398 456 247 378 307 l 378 1093 l 85 1093 l 85 397 b 539 -31 85 146 289 -31 z "},"ü":{"ha":1078,"x_min":0,"x_max":0,"o":"m 376 1194 b 475 1287 429 1194 475 1236 b 376 1381 475 1337 429 1381 b 275 1287 321 1381 275 1337 b 376 1194 275 1236 321 1194 z m 702 1194 b 802 1287 757 1194 802 1236 b 702 1381 802 1337 757 1381 b 603 1287 648 1381 603 1337 b 702 1194 603 1236 648 1194 z m 539 -31 b 993 397 789 -31 993 146 l 993 1093 l 701 1093 l 701 398 b 538 247 701 309 621 247 b 378 398 456 247 378 307 l 378 1093 l 85 1093 l 85 397 b 539 -31 85 146 289 -31 z "},"Ù":{"ha":1078,"x_min":0,"x_max":0,"o":"m 528 1183 l 711 1183 l 594 1412 l 367 1412 z m 539 -31 b 993 397 789 -31 993 146 l 993 1093 l 701 1093 l 701 398 b 538 247 701 309 621 247 b 378 398 456 247 378 307 l 378 1093 l 85 1093 l 85 397 b 539 -31 85 146 289 -31 z "},"ù":{"ha":1078,"x_min":0,"x_max":0,"o":"m 528 1183 l 711 1183 l 594 1412 l 367 1412 z m 539 -31 b 993 397 789 -31 993 146 l 993 1093 l 701 1093 l 701 398 b 538 247 701 309 621 247 b 378 398 456 247 378 307 l 378 1093 l 85 1093 l 85 397 b 539 -31 85 146 289 -31 z "},"Ű":{"ha":1078,"x_min":0,"x_max":0,"o":"m 272 1183 l 435 1183 l 568 1412 l 365 1412 z m 533 1183 l 705 1183 l 901 1412 l 674 1412 z m 539 -31 b 993 397 789 -31 993 146 l 993 1093 l 701 1093 l 701 398 b 538 247 701 309 621 247 b 378 398 456 247 378 307 l 378 1093 l 85 1093 l 85 397 b 539 -31 85 146 289 -31 z "},"ű":{"ha":1078,"x_min":0,"x_max":0,"o":"m 272 1183 l 435 1183 l 568 1412 l 365 1412 z m 533 1183 l 705 1183 l 901 1412 l 674 1412 z m 539 -31 b 993 397 789 -31 993 146 l 993 1093 l 701 1093 l 701 398 b 538 247 701 309 621 247 b 378 398 456 247 378 307 l 378 1093 l 85 1093 l 85 397 b 539 -31 85 146 289 -31 z "},"Ū":{"ha":1078,"x_min":0,"x_max":0,"o":"m 317 1221 l 761 1221 l 761 1358 l 317 1358 z m 539 -31 b 993 397 789 -31 993 146 l 993 1093 l 701 1093 l 701 398 b 538 247 701 309 621 247 b 378 398 456 247 378 307 l 378 1093 l 85 1093 l 85 397 b 539 -31 85 146 289 -31 z "},"ū":{"ha":1078,"x_min":0,"x_max":0,"o":"m 317 1221 l 761 1221 l 761 1358 l 317 1358 z m 539 -31 b 993 397 789 -31 993 146 l 993 1093 l 701 1093 l 701 398 b 538 247 701 309 621 247 b 378 398 456 247 378 307 l 378 1093 l 85 1093 l 85 397 b 539 -31 85 146 289 -31 z "},"Ų":{"ha":1078,"x_min":0,"x_max":0,"o":"m 701 1093 l 701 398 b 538 247 701 309 621 247 b 378 398 456 247 378 307 l 378 1093 l 85 1093 l 85 397 b 434 -20 85 182 235 22 b 332 -211 374 -65 332 -133 b 550 -380 332 -317 408 -380 b 681 -365 589 -380 633 -375 l 654 -182 b 574 -195 619 -191 589 -195 b 534 -151 546 -195 534 -174 b 629 -22 534 -111 564 -75 b 993 397 837 14 993 178 l 993 1093 z "},"ų":{"ha":1078,"x_min":0,"x_max":0,"o":"m 701 1093 l 701 398 b 538 247 701 309 621 247 b 378 398 456 247 378 307 l 378 1093 l 85 1093 l 85 397 b 434 -20 85 182 235 22 b 332 -211 374 -65 332 -133 b 550 -380 332 -317 408 -380 b 681 -365 589 -380 633 -375 l 654 -182 b 574 -195 619 -191 589 -195 b 534 -151 546 -195 534 -174 b 629 -22 534 -111 564 -75 b 993 397 837 14 993 178 l 993 1093 z "},"Ů":{"ha":1078,"x_min":0,"x_max":0,"o":"m 540 1158 b 703 1316 629 1158 703 1230 b 540 1475 703 1402 629 1475 b 375 1316 450 1475 375 1403 b 540 1158 375 1229 450 1158 z m 540 1257 b 479 1315 506 1257 479 1283 b 540 1374 479 1348 506 1374 b 600 1315 573 1374 600 1348 b 540 1257 600 1283 573 1257 z m 539 -31 b 993 397 789 -31 993 146 l 993 1093 l 701 1093 l 701 398 b 538 247 701 309 621 247 b 378 398 456 247 378 307 l 378 1093 l 85 1093 l 85 397 b 539 -31 85 146 289 -31 z "},"ů":{"ha":1078,"x_min":0,"x_max":0,"o":"m 540 1158 b 703 1316 629 1158 703 1230 b 540 1475 703 1402 629 1475 b 375 1316 450 1475 375 1403 b 540 1158 375 1229 450 1158 z m 540 1257 b 479 1315 506 1257 479 1283 b 540 1374 479 1348 506 1374 b 600 1315 573 1374 600 1348 b 540 1257 600 1283 573 1257 z m 539 -31 b 993 397 789 -31 993 146 l 993 1093 l 701 1093 l 701 398 b 538 247 701 309 621 247 b 378 398 456 247 378 307 l 378 1093 l 85 1093 l 85 397 b 539 -31 85 146 289 -31 z "},"V":{"ha":1166,"x_min":0,"x_max":0,"o":"m 833 1093 l 581 501 l 328 1093 l 14 1093 l 516 -12 l 648 -12 l 1152 1093 z "},"v":{"ha":1166,"x_min":0,"x_max":0,"o":"m 833 1093 l 581 501 l 328 1093 l 14 1093 l 516 -12 l 648 -12 l 1152 1093 z "},"W":{"ha":1428,"x_min":0,"x_max":0,"o":"m 380 -7 l 459 -7 l 713 534 l 968 -7 l 1048 -7 l 1413 1093 l 1099 1093 l 949 594 l 725 1091 l 703 1091 l 479 593 l 328 1093 l 14 1093 z "},"w":{"ha":1428,"x_min":0,"x_max":0,"o":"m 380 -7 l 459 -7 l 713 534 l 968 -7 l 1048 -7 l 1413 1093 l 1099 1093 l 949 594 l 725 1091 l 703 1091 l 479 593 l 328 1093 l 14 1093 z "},"Ẃ":{"ha":1428,"x_min":0,"x_max":0,"o":"m 782 1183 l 943 1412 l 716 1412 l 600 1183 z m 380 -7 l 459 -7 l 713 534 l 968 -7 l 1048 -7 l 1413 1093 l 1099 1093 l 949 594 l 725 1091 l 703 1091 l 479 593 l 328 1093 l 14 1093 z "},"ẃ":{"ha":1428,"x_min":0,"x_max":0,"o":"m 782 1183 l 943 1412 l 716 1412 l 600 1183 z m 380 -7 l 459 -7 l 713 534 l 968 -7 l 1048 -7 l 1413 1093 l 1099 1093 l 949 594 l 725 1091 l 703 1091 l 479 593 l 328 1093 l 14 1093 z "},"Ŵ":{"ha":1428,"x_min":0,"x_max":0,"o":"m 421 1193 l 627 1193 l 713 1281 l 800 1193 l 1008 1193 l 794 1392 l 632 1392 z m 380 -7 l 459 -7 l 713 534 l 968 -7 l 1048 -7 l 1413 1093 l 1099 1093 l 949 594 l 725 1091 l 703 1091 l 479 593 l 328 1093 l 14 1093 z "},"ŵ":{"ha":1428,"x_min":0,"x_max":0,"o":"m 421 1193 l 627 1193 l 713 1281 l 800 1193 l 1008 1193 l 794 1392 l 632 1392 z m 380 -7 l 459 -7 l 713 534 l 968 -7 l 1048 -7 l 1413 1093 l 1099 1093 l 949 594 l 725 1091 l 703 1091 l 479 593 l 328 1093 l 14 1093 z "},"Ẅ":{"ha":1428,"x_min":0,"x_max":0,"o":"m 551 1194 b 650 1287 605 1194 650 1236 b 551 1381 650 1337 605 1381 b 451 1287 496 1381 451 1337 b 551 1194 451 1236 496 1194 z m 878 1194 b 978 1287 932 1194 978 1236 b 878 1381 978 1337 932 1381 b 779 1287 824 1381 779 1337 b 878 1194 779 1236 823 1194 z m 380 -7 l 459 -7 l 713 534 l 968 -7 l 1048 -7 l 1413 1093 l 1099 1093 l 949 594 l 725 1091 l 703 1091 l 479 593 l 328 1093 l 14 1093 z "},"ẅ":{"ha":1428,"x_min":0,"x_max":0,"o":"m 551 1194 b 650 1287 605 1194 650 1236 b 551 1381 650 1337 605 1381 b 451 1287 496 1381 451 1337 b 551 1194 451 1236 496 1194 z m 878 1194 b 978 1287 932 1194 978 1236 b 878 1381 978 1337 932 1381 b 779 1287 824 1381 779 1337 b 878 1194 779 1236 823 1194 z m 380 -7 l 459 -7 l 713 534 l 968 -7 l 1048 -7 l 1413 1093 l 1099 1093 l 949 594 l 725 1091 l 703 1091 l 479 593 l 328 1093 l 14 1093 z "},"Ẁ":{"ha":1428,"x_min":0,"x_max":0,"o":"m 704 1183 l 886 1183 l 770 1412 l 543 1412 z m 380 -7 l 459 -7 l 713 534 l 968 -7 l 1048 -7 l 1413 1093 l 1099 1093 l 949 594 l 725 1091 l 703 1091 l 479 593 l 328 1093 l 14 1093 z "},"ẁ":{"ha":1428,"x_min":0,"x_max":0,"o":"m 704 1183 l 886 1183 l 770 1412 l 543 1412 z m 380 -7 l 459 -7 l 713 534 l 968 -7 l 1048 -7 l 1413 1093 l 1099 1093 l 949 594 l 725 1091 l 703 1091 l 479 593 l 328 1093 l 14 1093 z "},"X":{"ha":1064,"x_min":0,"x_max":0,"o":"m 14 0 l 349 0 l 532 323 l 715 0 l 1050 0 l 702 568 l 1031 1093 l 699 1093 l 532 804 l 365 1093 l 33 1093 l 361 568 z "},"x":{"ha":1064,"x_min":0,"x_max":0,"o":"m 14 0 l 349 0 l 532 323 l 715 0 l 1050 0 l 702 568 l 1031 1093 l 699 1093 l 532 804 l 365 1093 l 33 1093 l 361 568 z "},"Y":{"ha":991,"x_min":0,"x_max":0,"o":"m 351 0 l 640 0 l 640 472 l 977 1093 l 648 1093 l 496 777 l 343 1093 l 14 1093 l 351 472 z "},"y":{"ha":991,"x_min":0,"x_max":0,"o":"m 351 0 l 640 0 l 640 472 l 977 1093 l 648 1093 l 496 777 l 343 1093 l 14 1093 l 351 472 z "},"Ý":{"ha":991,"x_min":0,"x_max":0,"o":"m 564 1183 l 726 1412 l 498 1412 l 382 1183 z m 351 0 l 640 0 l 640 472 l 977 1093 l 648 1093 l 496 777 l 343 1093 l 14 1093 l 351 472 z "},"ý":{"ha":991,"x_min":0,"x_max":0,"o":"m 564 1183 l 726 1412 l 498 1412 l 382 1183 z m 351 0 l 640 0 l 640 472 l 977 1093 l 648 1093 l 496 777 l 343 1093 l 14 1093 l 351 472 z "},"Ŷ":{"ha":991,"x_min":0,"x_max":0,"o":"m 203 1193 l 409 1193 l 495 1281 l 581 1193 l 789 1193 l 576 1392 l 414 1392 z m 351 0 l 640 0 l 640 472 l 977 1093 l 648 1093 l 496 777 l 343 1093 l 14 1093 l 351 472 z "},"ŷ":{"ha":991,"x_min":0,"x_max":0,"o":"m 203 1193 l 409 1193 l 495 1281 l 581 1193 l 789 1193 l 576 1392 l 414 1392 z m 351 0 l 640 0 l 640 472 l 977 1093 l 648 1093 l 496 777 l 343 1093 l 14 1093 l 351 472 z "},"ÿ":{"ha":991,"x_min":0,"x_max":0,"o":"m 333 1194 b 432 1287 387 1194 432 1236 b 333 1381 432 1337 387 1381 b 233 1287 278 1381 233 1337 b 333 1194 233 1236 278 1194 z m 659 1194 b 760 1287 714 1194 760 1236 b 659 1381 760 1337 714 1381 b 560 1287 606 1381 560 1337 b 659 1194 560 1236 605 1194 z m 351 0 l 640 0 l 640 472 l 977 1093 l 648 1093 l 496 777 l 343 1093 l 14 1093 l 351 472 z "},"Ÿ":{"ha":991,"x_min":0,"x_max":0,"o":"m 333 1194 b 432 1287 387 1194 432 1236 b 333 1381 432 1337 387 1381 b 233 1287 278 1381 233 1337 b 333 1194 233 1236 278 1194 z m 659 1194 b 760 1287 714 1194 760 1236 b 659 1381 760 1337 714 1381 b 560 1287 606 1381 560 1337 b 659 1194 560 1236 605 1194 z m 351 0 l 640 0 l 640 472 l 977 1093 l 648 1093 l 496 777 l 343 1093 l 14 1093 l 351 472 z "},"Ỳ":{"ha":991,"x_min":0,"x_max":0,"o":"m 486 1183 l 668 1183 l 551 1412 l 324 1412 z m 351 0 l 640 0 l 640 472 l 977 1093 l 648 1093 l 496 777 l 343 1093 l 14 1093 l 351 472 z "},"ỳ":{"ha":991,"x_min":0,"x_max":0,"o":"m 486 1183 l 668 1183 l 551 1412 l 324 1412 z m 351 0 l 640 0 l 640 472 l 977 1093 l 648 1093 l 496 777 l 343 1093 l 14 1093 l 351 472 z "},"Z":{"ha":941,"x_min":0,"x_max":0,"o":"m 57 0 l 884 0 l 884 273 l 515 273 l 884 1093 l 57 1093 l 57 822 l 427 822 z "},"z":{"ha":941,"x_min":0,"x_max":0,"o":"m 57 0 l 884 0 l 884 273 l 515 273 l 884 1093 l 57 1093 l 57 822 l 427 822 z "},"Ź":{"ha":941,"x_min":0,"x_max":0,"o":"m 538 1183 l 700 1412 l 473 1412 l 356 1183 z m 57 0 l 884 0 l 884 273 l 515 273 l 884 1093 l 57 1093 l 57 822 l 427 822 z "},"ź":{"ha":941,"x_min":0,"x_max":0,"o":"m 538 1183 l 700 1412 l 473 1412 l 356 1183 z m 57 0 l 884 0 l 884 273 l 515 273 l 884 1093 l 57 1093 l 57 822 l 427 822 z "},"Ž":{"ha":941,"x_min":0,"x_max":0,"o":"m 177 1392 l 388 1193 l 550 1193 l 764 1392 l 555 1392 l 469 1303 l 383 1392 z m 57 0 l 884 0 l 884 273 l 515 273 l 884 1093 l 57 1093 l 57 822 l 427 822 z "},"ž":{"ha":941,"x_min":0,"x_max":0,"o":"m 177 1392 l 388 1193 l 550 1193 l 764 1392 l 555 1392 l 469 1303 l 383 1392 z m 57 0 l 884 0 l 884 273 l 515 273 l 884 1093 l 57 1093 l 57 822 l 427 822 z "},"Ż":{"ha":941,"x_min":0,"x_max":0,"o":"m 471 1193 b 586 1300 533 1193 586 1240 b 471 1409 586 1358 534 1409 b 356 1299 408 1409 356 1358 b 471 1193 356 1241 407 1193 z m 57 0 l 884 0 l 884 273 l 515 273 l 884 1093 l 57 1093 l 57 822 l 427 822 z "},"ż":{"ha":941,"x_min":0,"x_max":0,"o":"m 471 1193 b 586 1300 533 1193 586 1240 b 471 1409 586 1358 534 1409 b 356 1299 408 1409 356 1358 b 471 1193 356 1241 407 1193 z m 57 0 l 884 0 l 884 273 l 515 273 l 884 1093 l 57 1093 l 57 822 l 427 822 z "},"i":{"ha":480,"x_min":0,"x_max":0,"o":"m 95 0 l 385 0 l 385 1093 l 95 1093 z "},"ı":{"ha":480,"x_min":0,"x_max":0,"o":"m 95 0 l 385 0 l 385 1093 l 95 1093 z "},".":{"ha":501,"x_min":0,"x_max":0,"o":"m 251 -39 b 430 130 349 -39 430 38 b 251 298 430 221 348 298 b 71 130 153 298 71 222 b 251 -39 71 37 152 -39 z "},",":{"ha":520,"x_min":0,"x_max":0,"o":"m 197 -260 b 449 66 356 -260 449 -94 b 261 298 449 207 376 298 b 71 120 151 298 71 214 b 206 -33 71 33 140 -33 b 218 -83 212 -43 218 -56 b 84 -208 218 -174 132 -208 b 197 -260 84 -227 130 -260 z "},":":{"ha":481,"x_min":0,"x_max":0,"o":"m 241 483 b 410 642 333 483 410 555 b 241 802 410 730 333 802 b 71 642 148 802 71 730 b 241 483 71 554 148 483 z m 241 -8 b 410 152 333 -8 410 64 b 241 312 410 239 332 312 b 71 152 149 312 71 239 b 241 -8 71 64 148 -8 z "},";":{"ha":510,"x_min":0,"x_max":0,"o":"m 241 479 b 410 639 333 479 410 552 b 241 799 410 726 333 799 b 71 639 148 799 71 727 b 241 479 71 551 148 479 z m 203 -237 b 443 73 355 -237 443 -79 b 264 294 443 206 374 294 b 84 124 159 294 84 214 b 212 -20 84 41 149 -20 b 223 -69 218 -31 223 -43 b 96 -188 223 -155 141 -188 b 203 -237 96 -205 140 -237 z "},"…":{"ha":1730,"x_min":0,"x_max":0,"o":"m 315 -39 b 494 130 413 -39 494 38 b 315 298 494 221 412 298 b 136 130 218 298 136 222 b 315 -39 136 37 216 -39 z m 872 -39 b 1052 130 970 -39 1052 38 b 872 298 1052 221 969 298 b 693 130 774 298 693 222 b 872 -39 693 37 774 -39 z m 1415 -39 b 1594 130 1513 -39 1594 38 b 1415 298 1594 221 1512 298 b 1236 130 1318 298 1236 222 b 1415 -39 1236 37 1316 -39 z "},"!":{"ha":540,"x_min":0,"x_max":0,"o":"m 150 382 l 391 382 l 437 1093 l 101 1093 z m 271 -39 b 440 118 363 -39 440 31 b 269 278 440 204 363 278 b 101 121 178 278 101 208 b 271 -39 101 33 178 -39 z "},"¡":{"ha":540,"x_min":0,"x_max":0,"o":"m 269 827 b 100 671 177 827 100 758 b 271 511 100 584 177 511 b 439 667 361 511 439 581 b 269 827 439 755 363 827 z m 391 407 l 150 407 l 102 -305 l 439 -305 z "},"?":{"ha":753,"x_min":0,"x_max":0,"o":"m 200 380 l 473 381 b 469 439 470 392 469 401 b 610 618 469 531 547 560 b 706 854 687 688 706 747 b 351 1140 706 978 568 1140 b 47 989 123 1140 65 1017 l 150 775 b 334 892 180 840 251 892 b 442 801 404 892 442 858 b 391 720 442 766 416 738 b 199 431 264 632 199 553 b 200 380 199 397 199 389 z m 338 -39 b 507 118 430 -39 507 31 b 336 278 507 204 430 278 b 168 121 245 278 168 208 b 338 -39 168 35 243 -39 z "},"¿":{"ha":753,"x_min":0,"x_max":0,"o":"m 416 854 b 246 698 323 854 246 785 b 417 538 246 612 323 538 b 585 694 509 538 585 608 b 416 854 585 781 511 854 z m 553 435 l 281 435 b 284 376 283 424 284 414 b 144 197 284 285 207 256 b 47 -39 66 127 47 69 b 402 -324 47 -162 185 -324 b 706 -173 630 -324 688 -201 l 604 41 b 419 -77 574 -25 503 -77 b 311 15 349 -77 311 -43 b 362 96 311 50 337 78 b 555 385 489 184 555 262 b 553 435 555 419 555 427 z "},"·":{"ha":501,"x_min":0,"x_max":0,"o":"m 251 364 b 430 532 349 364 430 440 b 251 701 430 623 348 701 b 71 532 153 701 71 624 b 251 364 71 439 152 364 z "},"•":{"ha":831,"x_min":0,"x_max":0,"o":"m 414 275 b 695 536 575 275 695 387 b 416 798 695 686 576 798 b 136 535 256 798 136 685 b 414 275 136 387 255 275 z "},"*":{"ha":637,"x_min":0,"x_max":0,"o":"m 224 641 l 413 641 l 378 800 l 490 694 l 590 832 l 411 890 l 590 956 l 490 1095 l 378 989 l 413 1148 l 224 1148 l 259 989 l 146 1095 l 47 956 l 227 896 l 47 832 l 146 694 l 259 801 z "},"#":{"ha":1096,"x_min":0,"x_max":0,"o":"m 1036 618 l 1062 820 l 913 820 l 949 1093 l 718 1093 l 682 820 l 492 820 l 528 1093 l 296 1093 l 261 820 l 111 820 l 84 618 l 235 618 l 211 436 l 60 436 l 34 235 l 184 235 l 154 0 l 386 0 l 416 235 l 606 235 l 576 0 l 807 0 l 838 235 l 986 235 l 1012 436 l 863 436 l 887 618 z m 632 436 l 442 436 l 466 618 l 656 618 z "},"/":{"ha":727,"x_min":0,"x_max":0,"o":"m 14 -81 l 267 -81 l 713 1175 l 459 1175 z "},"\\":{"ha":727,"x_min":0,"x_max":0,"o":"m 713 -81 l 268 1175 l 15 1175 l 461 -81 z "},"‥":{"ha":1121,"x_min":0,"x_max":0,"o":"m 315 -39 b 494 130 413 -39 494 38 b 315 298 494 221 412 298 b 136 130 218 298 136 222 b 315 -39 136 37 216 -39 z m 806 -39 b 985 130 904 -39 985 38 b 806 298 985 221 903 298 b 627 130 708 298 627 222 b 806 -39 627 37 707 -39 z "},"(":{"ha":513,"x_min":0,"x_max":0,"o":"m 233 -81 l 465 -81 b 309 547 362 91 309 374 b 464 1175 309 720 361 1002 l 233 1175 b 47 547 93 990 47 744 b 233 -81 47 351 94 103 z "},")":{"ha":513,"x_min":0,"x_max":0,"o":"m 279 -81 b 465 547 419 103 465 351 b 280 1175 465 744 420 990 l 49 1175 b 204 547 151 1002 204 720 b 47 -81 204 374 151 91 z "},"{":{"ha":662,"x_min":0,"x_max":0,"o":"m 420 -81 l 614 -81 l 614 121 l 524 121 b 456 227 482 121 456 169 l 456 279 b 301 551 456 429 387 551 b 456 823 387 551 456 673 l 456 867 b 523 969 456 922 482 968 l 614 972 l 614 1175 l 420 1175 b 208 987 303 1175 208 1090 l 208 844 b 47 625 208 724 132 625 l 47 477 b 208 258 132 477 208 378 l 208 106 b 420 -81 208 3 303 -81 z "},"}":{"ha":662,"x_min":0,"x_max":0,"o":"m 243 -81 b 454 106 359 -81 454 3 l 454 258 b 614 477 454 378 530 477 l 614 625 b 454 844 530 625 454 724 l 454 987 b 243 1175 454 1090 359 1175 l 48 1175 l 48 972 l 139 969 b 206 867 180 968 206 922 l 206 823 b 361 551 206 673 276 551 b 206 279 276 551 206 429 l 206 227 b 139 121 206 169 180 121 l 48 121 l 48 -81 z "},"[":{"ha":572,"x_min":0,"x_max":0,"o":"m 524 972 l 524 1175 l 95 1175 l 95 -81 l 524 -81 l 524 121 l 343 121 l 343 972 z "},"]":{"ha":572,"x_min":0,"x_max":0,"o":"m 477 1175 l 47 1175 l 47 972 l 229 972 l 229 121 l 47 121 l 47 -81 l 477 -81 z "},"-":{"ha":671,"x_min":0,"x_max":0,"o":"m 47 417 l 624 417 l 624 655 l 47 655 z "},"–":{"ha":1046,"x_min":0,"x_max":0,"o":"m 51 417 l 996 417 l 996 655 l 51 655 z "},"—":{"ha":1389,"x_min":0,"x_max":0,"o":"m 44 417 l 1345 417 l 1345 655 l 44 655 z "},"‒":{"ha":751,"x_min":0,"x_max":0,"o":"m 47 417 l 704 417 l 704 655 l 47 655 z "},"_":{"ha":882,"x_min":0,"x_max":0,"o":"m 0 -92 l 882 -92 l 882 93 l 0 93 z "},"‚":{"ha":439,"x_min":0,"x_max":0,"o":"m 162 -215 b 391 81 307 -215 391 -64 b 220 293 391 210 325 293 b 47 130 119 293 47 216 b 170 -7 47 51 111 -7 b 181 -54 176 -17 181 -29 b 60 -168 181 -136 102 -168 b 162 -215 60 -185 102 -215 z "},"„":{"ha":846,"x_min":0,"x_max":0,"o":"m 162 -217 b 391 79 307 -217 391 -66 b 220 291 391 208 325 291 b 47 128 119 291 47 214 b 170 -9 47 49 111 -9 b 181 -56 176 -19 181 -31 b 60 -170 181 -138 102 -170 b 162 -217 60 -187 102 -217 z m 570 -217 b 799 79 714 -217 799 -66 b 628 291 799 208 732 291 b 455 128 527 291 455 214 b 578 -9 455 49 518 -9 b 589 -56 584 -19 589 -31 b 467 -170 589 -138 510 -170 b 570 -217 467 -187 509 -217 z "},"“":{"ha":846,"x_min":0,"x_max":0,"o":"m 277 1114 b 47 818 132 1114 47 963 b 218 606 47 690 113 606 b 391 769 319 606 391 683 b 268 907 391 848 328 907 b 258 954 262 916 258 928 b 379 1067 258 1036 336 1067 b 277 1114 379 1084 337 1114 z m 684 1114 b 455 818 539 1114 455 963 b 626 606 455 690 521 606 b 798 769 726 606 798 683 b 675 907 798 848 736 907 b 665 954 670 916 665 928 b 787 1067 665 1036 743 1067 b 684 1114 787 1084 745 1114 z "},"”":{"ha":846,"x_min":0,"x_max":0,"o":"m 162 612 b 391 908 307 612 391 763 b 220 1120 391 1036 325 1120 b 47 958 119 1120 47 1044 b 170 819 47 878 111 819 b 181 773 176 810 181 798 b 60 659 181 690 102 659 b 162 612 60 642 102 612 z m 570 612 b 799 908 714 612 799 763 b 628 1120 799 1036 732 1120 b 455 958 527 1120 455 1044 b 578 819 455 878 518 819 b 589 773 584 810 589 798 b 467 659 589 690 510 659 b 570 612 467 642 509 612 z "},"‘":{"ha":439,"x_min":0,"x_max":0,"o":"m 277 1114 b 47 818 132 1114 47 963 b 218 606 47 690 113 606 b 391 769 319 606 391 683 b 268 907 391 848 328 907 b 258 954 262 916 258 928 b 379 1067 258 1036 336 1067 b 277 1114 379 1084 337 1114 z "},"’":{"ha":439,"x_min":0,"x_max":0,"o":"m 162 618 b 391 915 307 618 391 770 b 220 1126 391 1043 325 1126 b 47 964 119 1126 47 1050 b 170 826 47 885 111 826 b 181 780 176 817 181 805 b 60 666 181 697 102 666 b 162 618 60 649 102 618 z "},"‛":{"ha":439,"x_min":0,"x_max":0,"o":"m 277 621 b 379 669 337 621 379 652 b 258 783 336 669 258 700 b 268 829 258 808 262 819 b 391 967 328 829 391 888 b 218 1129 391 1053 319 1129 b 47 918 113 1129 47 1046 b 277 621 47 772 132 621 z "},"«":{"ha":924,"x_min":0,"x_max":0,"o":"m 496 866 l 316 901 l 47 536 l 316 172 l 496 206 l 301 536 z m 876 866 l 696 901 l 427 536 l 696 172 l 876 206 l 681 536 z "},"»":{"ha":924,"x_min":0,"x_max":0,"o":"m 229 901 l 47 866 l 243 536 l 47 206 l 229 172 l 496 536 z m 608 901 l 427 866 l 623 536 l 427 206 l 608 172 l 876 536 z "},"‹":{"ha":544,"x_min":0,"x_max":0,"o":"m 496 866 l 316 901 l 47 536 l 316 172 l 496 206 l 301 536 z "},"›":{"ha":544,"x_min":0,"x_max":0,"o":"m 229 901 l 47 866 l 243 536 l 47 206 l 229 172 l 496 536 z "},"\"":{"ha":731,"x_min":0,"x_max":0,"o":"m 113 731 l 273 731 l 339 1121 l 47 1121 z m 458 731 l 618 731 l 684 1121 l 393 1121 z "},"'":{"ha":387,"x_min":0,"x_max":0,"o":"m 113 731 l 273 731 l 339 1121 l 47 1121 z "},"　":{"ha":1493,"x_min":0,"x_max":0,"o":""}," ":{"ha":6719,"x_min":0,"x_max":0,"o":""}," ":{"ha":1493,"x_min":0,"x_max":0,"o":""}," ":{"ha":1493,"x_min":0,"x_max":0,"o":""}," ":{"ha":747,"x_min":0,"x_max":0,"o":""}," ":{"ha":747,"x_min":0,"x_max":0,"o":""}," ":{"ha":1061,"x_min":0,"x_max":0,"o":""}," ":{"ha":374,"x_min":0,"x_max":0,"o":""}," ":{"ha":214,"x_min":0,"x_max":0,"o":""}," ":{"ha":350,"x_min":0,"x_max":0,"o":""}," ":{"ha":501,"x_min":0,"x_max":0,"o":""}," ":{"ha":249,"x_min":0,"x_max":0,"o":""}," ":{"ha":299,"x_min":0,"x_max":0,"o":""}," ":{"ha":498,"x_min":0,"x_max":0,"o":""},"​":{"ha":0,"x_min":0,"x_max":0,"o":""},"‍":{"ha":0,"x_min":0,"x_max":0,"o":""},"‌":{"ha":0,"x_min":0,"x_max":0,"o":""},"":{"ha":1453,"x_min":0,"x_max":0,"o":""},"฿":{"ha":941,"x_min":0,"x_max":0,"o":"m 678 616 b 798 809 723 616 798 696 b 547 1083 798 935 696 1049 l 547 1246 l 320 1246 l 320 1093 l 95 1093 l 95 0 l 320 0 l 320 -153 l 547 -153 l 547 0 l 562 0 b 926 334 781 0 926 161 b 678 616 926 498 795 616 z m 374 841 l 446 841 b 554 757 508 841 554 810 b 444 669 554 701 507 669 l 374 669 z m 517 264 l 374 264 l 374 471 l 519 471 b 648 368 602 471 648 432 b 517 264 648 296 584 264 z "},"₿":{"ha":941,"x_min":0,"x_max":0,"o":"m 926 334 b 678 616 926 498 795 616 b 798 809 723 616 798 696 b 621 1058 798 913 729 1008 l 621 1246 l 466 1246 l 466 1093 l 454 1093 l 401 1093 l 401 1246 l 245 1246 l 245 1093 l 95 1093 l 95 0 l 249 0 l 249 -153 l 404 -153 l 404 0 l 469 0 l 469 -153 l 625 -153 l 625 5 b 926 334 808 32 926 178 z m 554 757 b 444 669 554 701 507 669 l 374 669 l 374 841 l 446 841 b 554 757 508 841 554 810 z m 517 264 l 374 264 l 374 471 l 519 471 b 648 368 602 471 648 432 b 517 264 648 296 584 264 z "},"¢":{"ha":840,"x_min":0,"x_max":0,"o":"m 795 174 l 659 359 b 514 307 626 329 572 307 b 318 505 402 307 318 392 b 513 705 318 618 402 705 b 660 650 569 705 625 682 l 785 844 b 597 929 732 884 668 914 l 597 1072 l 371 1072 l 371 922 b 44 505 189 873 44 720 b 371 88 44 291 189 137 l 371 -66 l 597 -66 l 597 81 b 795 174 671 97 740 130 z "},"¤":{"ha":908,"x_min":0,"x_max":0,"o":"m 784 547 b 736 707 784 606 766 661 l 861 821 l 754 922 l 628 808 b 456 852 578 836 519 852 b 285 808 393 852 334 836 l 161 925 l 54 825 l 178 709 b 128 544 146 661 128 604 b 174 389 128 487 145 434 l 47 274 l 152 174 l 279 289 b 454 241 330 258 391 241 b 625 286 517 241 576 257 l 751 170 l 857 268 l 733 384 b 784 547 766 431 784 487 z m 456 449 b 349 547 397 449 349 492 b 450 644 349 602 393 644 b 562 548 504 644 562 608 b 456 449 562 494 515 449 z "},"$":{"ha":887,"x_min":0,"x_max":0,"o":"m 849 323 b 565 661 849 484 736 589 b 370 777 447 710 370 726 b 472 844 370 814 412 844 b 641 762 524 844 608 819 l 808 923 b 574 1099 775 1007 689 1073 l 574 1246 l 347 1246 l 347 1094 b 81 785 196 1053 81 936 b 338 470 81 621 200 530 b 557 317 446 422 557 373 b 435 250 557 272 497 250 b 214 357 344 250 259 290 l 38 185 b 347 -8 83 85 204 13 l 347 -153 l 574 -153 l 574 3 b 849 323 730 45 849 160 z "},"€":{"ha":1202,"x_min":0,"x_max":0,"o":"m 745 250 b 484 396 640 250 538 307 l 857 396 l 869 526 l 443 526 b 442 545 442 532 442 538 b 444 573 442 554 443 564 l 876 573 l 888 703 l 489 703 b 751 840 544 786 642 840 b 987 739 831 840 920 800 l 1154 954 b 750 1119 1042 1055 891 1117 b 169 703 467 1119 238 947 l 60 703 l 47 573 l 149 573 b 148 547 148 564 148 555 b 149 526 148 540 148 532 l 60 526 l 47 396 l 168 396 b 745 -24 237 138 484 -24 b 1154 136 911 -24 1050 41 l 989 357 b 745 250 918 294 836 250 z "},"ƒ":{"ha":926,"x_min":0,"x_max":0,"o":"m 798 854 l 898 854 l 898 1108 l 759 1108 b 362 735 524 1108 424 1031 l 351 679 l 81 679 l 81 455 l 304 455 b 128 258 262 268 212 258 l 28 258 l 28 4 l 174 4 b 565 375 408 4 504 87 l 581 455 l 848 455 l 848 679 l 628 679 b 798 854 669 837 715 854 z "},"₣":{"ha":832,"x_min":0,"x_max":0,"o":"m 804 823 l 804 1096 l 95 1096 l 95 319 l 7 319 l 7 136 l 95 136 l 95 -1 l 382 -1 l 382 136 l 621 136 l 621 319 l 382 319 l 382 404 l 729 404 l 729 646 l 382 646 l 382 823 z "},"₭":{"ha":1023,"x_min":0,"x_max":0,"o":"m 1013 0 l 721 435 l 937 435 l 937 659 l 699 659 l 972 1093 l 638 1093 l 385 686 l 385 1093 l 95 1093 l 95 659 l 7 659 l 7 435 l 95 435 l 95 0 l 385 0 l 385 416 l 661 0 z "},"₤":{"ha":865,"x_min":0,"x_max":0,"o":"m 420 245 b 452 366 441 284 451 322 l 611 366 l 611 501 l 433 501 b 418 552 428 518 422 535 l 611 552 l 611 688 l 397 688 b 552 858 399 768 446 858 b 641 810 591 858 623 842 l 809 951 b 514 1104 745 1050 627 1104 b 105 701 272 1104 104 924 l 105 688 l 52 688 l 52 552 l 130 552 b 144 501 134 534 140 518 l 52 501 l 52 366 l 163 366 b 128 245 160 325 149 286 l 47 245 l 47 0 l 817 0 l 817 245 z "},"₦":{"ha":1175,"x_min":0,"x_max":0,"o":"m 1168 659 l 1060 659 l 1060 1095 l 769 1095 l 769 562 l 209 1104 l 115 1104 l 115 659 l 7 659 l 7 435 l 115 435 l 115 -1 l 406 -1 l 406 534 l 968 -11 l 1060 -11 l 1060 435 l 1168 435 z "},"₱":{"ha":1121,"x_min":0,"x_max":0,"o":"m 1093 901 l 924 901 b 566 1093 852 1016 718 1093 l 153 1093 l 153 901 l 28 901 l 28 724 l 153 724 l 153 690 l 28 690 l 28 514 l 153 514 l 153 0 l 443 0 l 443 322 l 566 322 b 922 514 718 322 850 400 l 1093 514 l 1093 690 l 978 690 b 979 710 979 697 979 703 l 979 724 l 1093 724 z m 566 589 l 443 590 l 443 825 l 566 825 b 699 709 643 825 699 775 b 566 589 699 642 644 589 z "},"₽":{"ha":1061,"x_min":0,"x_max":0,"o":"m 603 370 b 1013 734 829 370 1013 523 b 613 1093 1013 937 836 1093 l 187 1093 l 187 583 l 47 583 l 47 376 l 187 376 l 187 302 l 47 302 l 47 119 l 187 119 l 187 0 l 477 0 l 477 119 l 753 119 l 753 302 l 477 302 l 477 370 z m 477 825 l 600 825 b 733 726 688 825 733 775 b 600 623 733 665 688 623 l 477 624 z "},"₨":{"ha":960,"x_min":0,"x_max":0,"o":"m 767 879 l 878 879 l 916 1093 l 132 1093 l 95 879 l 369 879 b 496 799 422 879 469 846 l 125 799 l 98 643 l 508 643 b 369 543 486 584 433 543 l 109 544 l 109 499 l 533 -1 l 873 -1 l 524 375 b 584 380 543 374 569 376 b 801 643 673 399 776 498 l 882 643 l 909 799 l 797 799 b 767 879 790 827 780 854 z "},"£":{"ha":861,"x_min":0,"x_max":0,"o":"m 416 245 b 450 383 440 289 450 332 b 446 426 450 397 448 412 l 611 426 l 611 606 l 401 606 b 393 683 396 631 393 656 b 549 858 393 765 440 858 b 637 810 588 858 620 842 l 806 951 b 511 1104 741 1050 624 1104 b 102 701 269 1104 101 924 b 113 606 102 667 106 635 l 52 606 l 52 426 l 157 426 b 160 389 159 414 160 401 b 125 245 160 339 150 294 l 47 245 l 47 0 l 814 0 l 814 245 z "},"₸":{"ha":872,"x_min":0,"x_max":0,"o":"m 28 1093 l 28 855 l 844 855 l 844 1093 z m 844 791 l 28 791 l 28 553 l 288 553 l 291 0 l 582 0 l 579 553 l 844 553 z "},"₮":{"ha":872,"x_min":0,"x_max":0,"o":"m 844 822 l 844 1093 l 28 1093 l 28 822 l 291 822 l 291 576 l 142 507 l 142 342 l 291 411 l 291 345 l 142 275 l 142 111 l 291 180 l 291 0 l 582 0 l 582 315 l 731 385 l 731 551 l 582 481 l 582 547 l 731 616 l 731 781 l 582 711 l 582 822 z "},"₩":{"ha":1434,"x_min":0,"x_max":0,"o":"m 1413 1093 l 1099 1093 l 949 594 l 725 1091 l 703 1091 l 479 593 l 328 1093 l 14 1093 l 159 659 l 20 659 l 20 435 l 233 435 l 380 -7 l 459 -7 l 713 534 l 968 -7 l 1048 -7 l 1195 435 l 1413 435 l 1413 659 l 1269 659 z "},"¥":{"ha":1058,"x_min":0,"x_max":0,"o":"m 1010 1093 l 681 1093 l 529 777 l 376 1093 l 47 1093 l 292 642 l 87 642 l 87 450 l 385 450 l 385 382 l 87 382 l 87 190 l 385 190 l 385 0 l 673 0 l 673 190 l 983 190 l 983 382 l 673 382 l 673 450 l 983 450 l 983 642 l 765 642 z "},"+":{"ha":911,"x_min":0,"x_max":0,"o":"m 816 662 l 591 662 l 591 910 l 321 910 l 321 662 l 95 662 l 95 418 l 321 418 l 321 169 l 591 169 l 591 418 l 816 418 z "},"−":{"ha":903,"x_min":0,"x_max":0,"o":"m 95 418 l 808 418 l 808 662 l 95 662 z "},"×":{"ha":1005,"x_min":0,"x_max":0,"o":"m 910 305 l 673 532 l 909 760 l 744 930 l 503 696 l 260 929 l 95 760 l 332 532 l 96 303 l 261 135 l 503 368 l 745 136 z "},"÷":{"ha":1122,"x_min":0,"x_max":0,"o":"m 549 722 b 726 888 646 722 726 799 b 548 1054 726 976 644 1054 b 372 888 454 1054 372 979 b 549 722 372 797 453 721 z m 95 409 l 1027 409 l 1027 635 l 95 635 z m 549 -19 b 726 148 646 -19 726 60 b 549 314 726 237 644 314 b 372 149 456 314 372 241 b 549 -19 372 57 454 -19 z "},"=":{"ha":918,"x_min":0,"x_max":0,"o":"m 95 605 l 823 605 l 823 831 l 95 831 z m 95 235 l 823 235 l 823 460 l 95 460 z "},"≠":{"ha":918,"x_min":0,"x_max":0,"o":"m 823 603 l 823 829 l 656 829 l 733 1053 l 567 1053 l 490 829 l 95 829 l 95 603 l 413 603 l 363 458 l 95 458 l 95 233 l 286 233 l 214 22 l 380 22 l 452 233 l 823 233 l 823 458 l 530 458 l 579 603 z "},">":{"ha":901,"x_min":0,"x_max":0,"o":"m 105 108 l 806 542 l 806 555 l 96 990 l 105 707 l 391 549 l 105 392 z "},"<":{"ha":901,"x_min":0,"x_max":0,"o":"m 796 108 l 796 392 l 510 549 l 796 707 l 806 990 l 95 555 l 95 542 z "},"≥":{"ha":917,"x_min":0,"x_max":0,"o":"m 104 351 l 806 698 l 806 709 l 95 1057 l 104 829 l 391 703 l 104 578 z m 822 58 l 822 241 l 106 241 l 106 58 z "},"≤":{"ha":917,"x_min":0,"x_max":0,"o":"m 812 351 l 812 578 l 526 703 l 812 829 l 822 1057 l 112 709 l 112 698 z m 95 58 l 811 58 l 811 241 l 95 241 z "},"±":{"ha":840,"x_min":0,"x_max":0,"o":"m 555 795 l 555 975 l 285 975 l 285 795 l 95 795 l 95 576 l 285 576 l 285 376 l 555 376 l 555 576 l 745 576 l 745 795 z m 95 100 l 745 100 l 745 302 l 95 302 z "},"≈":{"ha":982,"x_min":0,"x_max":0,"o":"m 267 576 b 354 686 281 637 304 686 b 629 571 433 686 481 571 b 887 808 725 571 849 618 l 715 861 b 629 751 701 800 677 751 b 353 865 551 751 500 865 b 96 629 252 865 132 812 z m 267 199 b 354 309 281 260 304 309 b 629 195 433 309 481 195 b 886 431 724 195 848 242 l 715 484 b 628 374 701 422 677 374 b 352 488 551 374 500 488 b 95 252 252 488 132 435 z "},"~":{"ha":1164,"x_min":0,"x_max":0,"o":"m 306 370 b 414 505 324 445 351 505 b 752 364 510 505 570 364 b 1069 655 869 364 1022 422 l 859 720 b 751 585 840 646 811 585 b 411 726 655 585 593 726 b 95 435 288 726 140 661 z "},"¬":{"ha":1056,"x_min":0,"x_max":0,"o":"m 95 732 l 95 475 l 689 475 l 689 262 l 961 262 l 961 732 z "},"^":{"ha":690,"x_min":0,"x_max":0,"o":"m 14 741 l 245 741 l 345 885 l 444 741 l 676 741 l 366 1137 l 324 1137 z "},"∅":{"ha":1080,"x_min":0,"x_max":0,"o":"m 860 858 l 1015 1087 l 804 1087 l 706 943 b 542 970 654 960 600 970 b 63 522 279 970 63 768 b 205 206 63 399 118 287 l 61 -7 l 273 -7 l 354 113 b 542 77 412 90 475 77 b 1022 525 806 77 1022 278 b 860 858 1022 657 959 776 z m 265 522 b 542 775 265 661 389 775 b 589 771 558 775 574 774 l 319 373 b 265 522 286 415 265 467 z m 542 271 b 468 280 516 271 491 274 l 747 690 b 817 522 790 646 817 587 b 542 271 817 384 693 271 z "},"∞":{"ha":1722,"x_min":0,"x_max":0,"o":"m 1260 958 b 861 768 1104 958 960 883 b 461 958 762 883 618 958 b 47 549 235 958 47 778 b 461 141 47 320 235 141 b 861 331 618 141 762 215 b 1260 141 960 215 1103 141 b 1674 549 1487 141 1674 320 b 1260 958 1674 778 1487 958 z m 464 372 b 290 549 376 372 290 451 b 464 726 290 647 373 726 b 743 549 577 726 675 644 b 464 372 675 456 578 372 z m 1258 372 b 979 549 1144 372 1046 456 b 1258 726 1046 643 1143 726 b 1432 549 1349 726 1432 647 b 1258 372 1432 451 1346 372 z "},"∫":{"ha":838,"x_min":0,"x_max":0,"o":"m 28 -203 l 147 -203 b 467 33 331 -203 444 -127 l 604 939 b 744 1055 613 1001 663 1055 l 810 1055 l 810 1289 l 691 1289 b 372 1053 508 1289 396 1213 l 236 146 b 94 31 227 85 176 31 l 28 31 z "},"∏":{"ha":1054,"x_min":0,"x_max":0,"o":"m 1025 1322 l 28 1322 l 28 1080 l 176 1080 l 176 -170 l 446 -170 l 446 1080 l 617 1080 l 617 -170 l 887 -170 l 887 1080 l 1025 1080 z "},"∑":{"ha":1066,"x_min":0,"x_max":0,"o":"m 1000 1305 l 14 1305 l 14 1291 l 470 560 l 14 -172 l 14 -186 l 999 -186 l 999 55 l 466 56 l 777 559 l 777 561 l 466 1063 l 1000 1063 z "},"√":{"ha":825,"x_min":0,"x_max":0,"o":"m 1164 1494 l 712 1494 l 379 560 l 274 888 l 14 888 l 374 -51 l 390 -51 l 876 1252 l 1164 1252 z "},"µ":{"ha":993,"x_min":0,"x_max":0,"o":"m 631 814 l 631 374 b 501 220 631 264 584 220 b 362 374 412 220 362 283 l 362 814 l 88 814 l 88 -305 l 362 -305 l 362 62 b 602 -25 423 7 505 -25 b 905 374 754 -25 905 49 l 905 814 z "},"∂":{"ha":935,"x_min":0,"x_max":0,"o":"m 448 -27 b 890 471 711 -27 890 163 b 526 1103 890 812 710 1036 l 312 950 b 646 595 505 871 620 764 b 404 722 606 678 511 722 b 44 350 202 722 44 564 b 448 -27 44 142 199 -27 z m 467 208 b 315 353 382 208 315 270 b 466 498 315 437 384 498 b 614 351 551 498 614 433 b 467 208 614 271 553 208 z "},"%":{"ha":1280,"x_min":0,"x_max":0,"o":"m 323 595 b 598 850 473 595 598 710 b 323 1106 598 991 474 1106 b 47 850 172 1106 47 991 b 323 595 47 709 172 595 z m 143 0 l 379 0 l 1129 1094 l 894 1094 z m 323 764 b 227 850 269 764 227 802 b 322 936 227 897 269 936 b 417 850 374 936 417 897 b 323 764 417 802 375 764 z m 958 -14 b 1233 243 1108 -14 1233 102 b 958 498 1233 383 1109 498 b 682 242 807 498 682 383 b 958 -14 682 102 807 -14 z m 958 156 b 861 242 904 156 861 195 b 957 328 861 289 904 328 b 1052 242 1009 328 1052 289 b 958 156 1052 195 1010 156 z "},"‰":{"ha":1866,"x_min":0,"x_max":0,"o":"m 323 595 b 598 850 473 595 598 710 b 323 1106 598 991 474 1106 b 47 850 172 1106 47 991 b 323 595 47 709 172 595 z m 143 0 l 379 0 l 1129 1094 l 894 1094 z m 323 764 b 227 850 269 764 227 802 b 322 936 227 897 269 936 b 417 850 374 936 417 897 b 323 764 417 802 375 764 z m 958 -14 b 1233 243 1108 -14 1233 102 b 958 498 1233 383 1109 498 b 682 242 807 498 682 383 b 958 -14 682 102 807 -14 z m 1543 -14 b 1818 243 1693 -14 1818 102 b 1544 498 1818 383 1694 498 b 1268 242 1393 498 1268 383 b 1543 -14 1268 102 1393 -14 z m 958 156 b 861 242 904 156 861 195 b 957 328 861 289 904 328 b 1052 242 1009 328 1052 289 b 958 156 1052 195 1010 156 z m 1543 156 b 1447 242 1490 156 1447 195 b 1543 328 1447 289 1490 328 b 1637 242 1595 328 1637 289 b 1543 156 1637 195 1595 156 z "},"↑":{"ha":1457,"x_min":0,"x_max":0,"o":"m 1169 680 l 728 1134 l 288 680 l 418 549 l 605 739 l 605 -85 l 852 -85 l 852 738 l 1038 549 z "},"↗":{"ha":1457,"x_min":0,"x_max":0,"o":"m 570 952 l 570 768 l 836 770 l 254 188 l 429 13 l 1010 595 l 1008 330 l 1194 330 l 1203 962 z "},"→":{"ha":1457,"x_min":0,"x_max":0,"o":"m 884 965 l 753 834 l 942 648 l 119 648 l 119 401 l 943 401 l 753 214 l 884 84 l 1338 524 z "},"↘":{"ha":1457,"x_min":0,"x_max":0,"o":"m 570 85 l 1203 75 l 1193 708 l 1008 708 l 1010 443 l 429 1025 l 254 850 l 836 268 l 570 270 z "},"↓":{"ha":1457,"x_min":0,"x_max":0,"o":"m 1038 500 l 852 311 l 852 1134 l 605 1134 l 605 311 l 418 500 l 288 370 l 728 -85 l 1169 370 z "},"↙":{"ha":1457,"x_min":0,"x_max":0,"o":"m 1220 868 l 1045 1043 l 463 461 l 465 726 l 280 726 l 271 93 l 903 103 l 903 288 l 638 286 z "},"←":{"ha":1457,"x_min":0,"x_max":0,"o":"m 1338 648 l 515 648 l 704 834 l 574 965 l 119 524 l 574 84 l 704 214 l 515 401 l 1338 401 z "},"↖":{"ha":1457,"x_min":0,"x_max":0,"o":"m 1220 181 l 637 763 l 903 761 l 903 945 l 270 956 l 280 322 l 465 322 l 463 588 l 1045 5 z "},"↔":{"ha":1457,"x_min":0,"x_max":0,"o":"m 958 965 l 827 834 l 1017 648 l 440 648 l 629 834 l 499 965 l 44 524 l 499 84 l 629 214 l 440 401 l 1017 401 l 827 214 l 958 84 l 1413 524 z "},"↕":{"ha":1457,"x_min":0,"x_max":0,"o":"m 1169 295 l 1038 425 l 852 236 l 852 812 l 1038 623 l 1169 754 l 728 1208 l 288 754 l 418 623 l 605 812 l 605 236 l 418 425 l 288 295 l 728 -160 z "},"◊":{"ha":884,"x_min":0,"x_max":0,"o":"m 440 1052 l 136 528 l 440 5 l 748 528 z m 440 318 l 322 528 l 440 739 l 561 528 z "},"@":{"ha":1639,"x_min":0,"x_max":0,"o":"m 729 -296 b 954 -253 844 -296 897 -275 l 883 -26 b 755 -50 840 -43 809 -50 b 322 349 487 -50 322 111 b 876 877 322 653 565 876 b 1304 496 1124 878 1304 760 b 1156 174 1304 361 1255 174 b 1098 257 1109 174 1098 217 b 1100 289 1098 270 1099 280 l 1150 703 l 962 703 l 924 602 b 776 709 924 663 859 709 b 494 359 608 710 494 539 b 702 114 494 211 579 114 b 888 223 786 114 877 158 b 1108 -23 890 81 954 -23 b 1592 537 1384 -23 1592 249 b 921 1135 1592 844 1373 1135 b 47 319 434 1135 47 789 b 729 -296 47 -31 281 -296 z m 796 307 b 717 394 748 307 717 346 b 823 515 717 454 763 515 b 897 430 871 515 897 477 b 796 307 897 366 854 307 z "},"&":{"ha":1107,"x_min":0,"x_max":0,"o":"m 1079 239 b 919 289 1037 241 981 259 b 973 580 951 372 970 469 l 706 576 b 686 438 703 529 697 482 b 410 804 536 555 410 700 b 494 895 410 864 454 895 b 590 795 535 895 585 862 l 840 859 b 507 1125 811 1024 669 1125 b 157 815 308 1125 157 977 b 214 619 157 755 178 688 b 47 326 123 561 47 450 b 463 -24 47 154 193 -24 b 777 83 588 -24 694 13 b 1078 -14 886 23 992 -14 z m 446 216 b 292 336 351 216 292 266 b 342 435 292 373 311 408 b 546 239 402 366 472 299 b 446 216 517 224 484 216 z "},"¶":{"ha":1124,"x_min":0,"x_max":0,"o":"m 136 784 b 494 449 136 595 290 450 l 494 -69 l 694 -69 l 694 1119 l 498 1119 b 136 784 292 1119 136 975 z m 793 1119 l 793 -75 l 988 -75 l 988 1119 z "},"§":{"ha":949,"x_min":0,"x_max":0,"o":"m 743 373 b 813 544 789 420 813 478 b 585 796 813 666 730 736 b 417 880 484 838 417 854 b 482 916 417 907 441 916 b 648 855 538 916 612 891 l 787 1007 b 495 1138 743 1088 614 1138 b 165 882 325 1138 165 1044 b 237 721 165 812 195 761 b 163 556 191 679 163 623 b 400 294 163 414 285 341 b 556 198 481 260 556 234 b 485 164 556 172 524 164 b 256 257 390 164 294 210 l 136 93 b 463 -60 180 6 311 -60 b 810 218 662 -60 810 51 b 743 373 810 285 787 333 z m 384 566 b 433 614 384 591 401 607 b 599 514 508 585 599 551 b 562 471 599 493 587 479 b 384 566 472 507 384 533 z "},"©":{"ha":1249,"x_min":0,"x_max":0,"o":"m 625 -61 b 1202 490 941 -61 1202 180 b 625 1040 1202 791 949 1040 b 47 490 301 1040 47 796 b 625 -61 47 183 302 -61 z m 625 68 b 182 489 384 68 182 258 b 625 911 182 721 382 911 b 1067 490 867 911 1067 721 b 625 68 1067 259 868 68 z m 640 168 b 858 245 726 168 799 196 l 734 401 b 640 362 706 376 677 362 b 498 494 554 362 498 429 b 639 625 498 559 554 625 b 735 585 677 625 707 611 l 850 749 b 640 820 792 793 722 820 b 293 494 440 820 293 666 b 640 168 293 320 439 168 z "},"®":{"ha":765,"x_min":0,"x_max":0,"o":"m 382 1093 b 54 789 199 1093 54 958 b 382 483 54 618 199 483 b 711 789 563 483 711 616 b 382 1093 711 956 567 1093 z m 382 560 b 136 788 249 560 136 663 b 382 1017 136 913 248 1017 b 629 788 517 1017 629 913 b 382 560 629 663 517 560 z m 505 848 b 391 948 505 903 457 948 l 275 948 l 275 644 l 357 644 l 357 768 l 441 644 l 536 644 l 450 763 b 505 848 481 776 505 809 z m 356 875 l 389 875 b 422 844 407 875 422 863 b 389 812 422 825 407 812 l 356 813 z "},"™":{"ha":925,"x_min":0,"x_max":0,"o":"m 853 1097 l 654 825 l 455 1097 l 406 1097 l 406 629 l 528 629 l 528 813 l 654 637 l 654 637 l 779 812 l 779 629 l 903 629 l 903 1097 z m 35 978 l 146 978 l 146 629 l 269 629 l 269 978 l 380 978 l 380 1093 l 35 1093 z "},"°":{"ha":500,"x_min":0,"x_max":0,"o":"m 250 735 b 456 926 361 735 456 821 b 250 1118 456 1031 361 1118 b 44 926 138 1118 44 1029 b 250 735 44 823 139 735 z m 250 853 b 168 926 203 853 168 887 b 250 1002 168 968 208 1002 b 332 927 294 1002 332 967 b 250 853 332 886 294 853 z "},"|":{"ha":441,"x_min":0,"x_max":0,"o":"m 136 -305 l 306 -305 l 306 1255 l 136 1255 z "},"¦":{"ha":441,"x_min":0,"x_max":0,"o":"m 136 587 l 306 587 l 306 1255 l 136 1255 z m 136 -305 l 306 -305 l 306 373 l 136 373 z "},"†":{"ha":496,"x_min":0,"x_max":0,"o":"m 481 967 l 328 967 l 328 1119 l 169 1119 l 169 967 l 14 967 l 14 833 l 169 833 l 169 0 l 328 0 l 328 833 l 481 833 z "},"‡":{"ha":497,"x_min":0,"x_max":0,"o":"m 483 833 l 483 967 l 329 967 l 329 1119 l 170 1119 l 170 967 l 16 967 l 16 833 l 170 833 l 170 283 l 14 283 l 14 149 l 170 149 l 170 0 l 329 0 l 329 149 l 481 149 l 481 283 l 329 283 l 329 833 z "},"℮":{"ha":1317,"x_min":0,"x_max":0,"o":"m 679 -22 b 1214 284 948 -22 1151 142 l 1130 284 b 677 59 1079 176 894 59 b 250 236 533 59 372 112 l 250 505 l 1264 505 b 1270 591 1267 524 1270 562 b 683 1109 1270 874 1016 1109 b 47 544 340 1109 47 859 b 679 -22 47 222 350 -22 z m 250 581 l 250 854 b 683 1029 366 968 517 1029 b 1081 868 848 1029 980 969 l 1081 581 z "},"ʼ":{"ha":323,"x_min":0,"x_max":0,"o":"m 14 743 l 218 743 l 309 1119 l 65 1119 z "},"̈":{"ha":0,"x_min":0,"x_max":0,"o":"m -399 915 b -300 1008 -346 915 -300 957 b -399 1102 -300 1058 -346 1102 b -500 1008 -454 1102 -500 1058 b -399 915 -500 957 -454 915 z m -73 915 b 28 1008 -18 915 28 957 b -73 1102 28 1058 -18 1102 b -172 1008 -127 1102 -172 1058 b -73 915 -172 957 -127 915 z "},"̇":{"ha":0,"x_min":0,"x_max":0,"o":"m -224 913 b -109 1021 -161 913 -109 961 b -224 1129 -109 1078 -161 1129 b -338 1020 -287 1129 -338 1078 b -224 913 -338 962 -288 913 z "},"̀":{"ha":0,"x_min":0,"x_max":0,"o":"m -182 904 l 0 904 l -117 1133 l -344 1133 z "},"́":{"ha":0,"x_min":0,"x_max":0,"o":"m -161 904 l 0 1133 l -227 1133 l -344 904 z "},"̋":{"ha":0,"x_min":0,"x_max":0,"o":"m -589 904 l -426 904 l -293 1133 l -496 1133 z m -328 904 l -155 904 l 41 1133 l -186 1133 z "},"̂":{"ha":0,"x_min":0,"x_max":0,"o":"m -549 913 l -343 913 l -257 1002 l -171 913 l 37 913 l -176 1112 l -338 1112 z "},"̌":{"ha":0,"x_min":0,"x_max":0,"o":"m -549 1112 l -338 913 l -176 913 l 37 1112 l -171 1112 l -257 1024 l -343 1112 z "},"̆":{"ha":0,"x_min":0,"x_max":0,"o":"m -233 909 b -14 1114 -108 909 -14 998 l -144 1114 b -233 1023 -144 1062 -182 1023 b -321 1114 -283 1023 -321 1062 l -451 1114 b -233 909 -451 998 -357 909 z "},"̊":{"ha":0,"x_min":0,"x_max":0,"o":"m -172 878 b -8 1037 -83 878 -8 951 b -172 1196 -8 1123 -83 1196 b -336 1037 -262 1196 -336 1124 b -172 878 -336 949 -262 878 z m -172 978 b -233 1036 -205 978 -233 1004 b -172 1095 -233 1068 -205 1095 b -111 1036 -138 1095 -111 1068 b -172 978 -111 1004 -138 978 z "},"̃":{"ha":0,"x_min":0,"x_max":0,"o":"m -480 920 b -413 1005 -469 967 -452 1005 b -201 917 -353 1005 -315 917 b -3 1099 -128 917 -33 954 l -135 1139 b -202 1055 -146 1093 -165 1055 b -414 1143 -262 1055 -301 1143 b -612 961 -492 1143 -584 1103 z "},"̄":{"ha":0,"x_min":0,"x_max":0,"o":"m -448 942 l -3 942 l -3 1078 l -448 1078 z "},"̒":{"ha":0,"x_min":0,"x_max":0,"o":"m -208 1229 b -381 1031 -315 1229 -381 1128 b -256 890 -381 946 -330 890 b -130 998 -182 890 -130 941 b -222 1089 -130 1050 -178 1089 b -231 1120 -227 1095 -231 1103 b -135 1198 -231 1177 -168 1198 b -208 1229 -135 1208 -165 1229 z "},"̦":{"ha":0,"x_min":0,"x_max":0,"o":"m -307 -419 b -134 -221 -200 -419 -134 -318 b -259 -81 -134 -136 -184 -81 b -385 -189 -332 -81 -385 -132 b -293 -279 -385 -241 -337 -279 b -285 -311 -288 -286 -285 -294 b -380 -388 -285 -367 -347 -388 b -307 -419 -380 -399 -351 -419 z "},"̧":{"ha":0,"x_min":0,"x_max":0,"o":"m -349 -389 b -49 -174 -185 -391 -49 -286 b -157 -58 -49 -109 -96 -58 b -174 -59 -163 -58 -168 -59 l -100 28 l -229 28 l -343 -113 l -311 -154 b -278 -149 -298 -151 -287 -149 b -235 -180 -242 -149 -235 -169 b -416 -233 -235 -210 -284 -233 z "},"̨":{"ha":0,"x_min":0,"x_max":0,"o":"m -73 -372 l -99 -189 b -180 -201 -134 -197 -165 -201 b -219 -157 -208 -201 -219 -180 b -85 0 -219 -111 -179 -69 l -216 23 b -421 -218 -328 -7 -421 -101 b -203 -387 -421 -323 -345 -387 b -73 -372 -164 -387 -121 -382 z "},"̵":{"ha":0,"x_min":0,"x_max":0,"o":"m -604 426 l -10 426 l -10 582 l -604 582 z "},"̶":{"ha":0,"x_min":0,"x_max":0,"o":"m -781 426 l 289 426 l 289 582 l -781 582 z "},"̷":{"ha":0,"x_min":0,"x_max":0,"o":"m -484 604 l 32 950 l 32 1161 l -484 814 z "},"̸":{"ha":0,"x_min":0,"x_max":0,"o":"m -829 -76 l -642 -76 l 9 877 l -176 877 z "},"¨":{"ha":466,"x_min":0,"x_max":0,"o":"m 66 915 b 165 1008 120 915 165 957 b 66 1102 165 1058 120 1102 b -34 1008 12 1102 -34 1058 b 66 915 -34 957 12 915 z m 393 915 b 493 1008 448 915 493 957 b 393 1102 493 1058 448 1102 b 294 1008 339 1102 294 1058 b 393 915 294 957 338 915 z "},"˙":{"ha":448,"x_min":0,"x_max":0,"o":"m 224 913 b 340 1021 287 913 340 961 b 224 1129 340 1078 288 1129 b 110 1020 161 1129 110 1078 b 224 913 110 962 161 913 z "},"`":{"ha":457,"x_min":0,"x_max":0,"o":"m 161 904 l 344 904 l 227 1133 l 0 1133 z "},"´":{"ha":534,"x_min":0,"x_max":0,"o":"m 172 904 l 334 1133 l 106 1133 l -10 904 z "},"˝":{"ha":462,"x_min":0,"x_max":0,"o":"m -10 904 l 153 904 l 286 1133 l 83 1133 z m 251 904 l 423 904 l 619 1133 l 392 1133 z "},"ˆ":{"ha":456,"x_min":0,"x_max":0,"o":"m -37 913 l 170 913 l 256 1002 l 342 913 l 550 913 l 336 1112 l 174 1112 z "},"ˇ":{"ha":456,"x_min":0,"x_max":0,"o":"m -37 1112 l 174 913 l 336 913 l 549 1112 l 341 1112 l 255 1024 l 169 1112 z "},"˘":{"ha":458,"x_min":0,"x_max":0,"o":"m 232 909 b 451 1114 357 909 451 998 l 321 1114 b 232 1023 321 1062 282 1023 b 144 1114 182 1023 144 1062 l 14 1114 b 232 909 14 998 107 909 z "},"˚":{"ha":439,"x_min":0,"x_max":0,"o":"m 173 878 b 336 1037 262 878 336 951 b 173 1196 336 1123 262 1196 b 8 1037 83 1196 8 1124 b 173 878 8 949 83 878 z m 173 978 b 112 1036 139 978 112 1004 b 173 1095 112 1068 139 1095 b 233 1036 206 1095 233 1068 b 173 978 233 1004 206 978 z "},"˜":{"ha":561,"x_min":0,"x_max":0,"o":"m 136 920 b 203 1005 146 967 164 1005 b 414 917 263 1005 300 917 b 612 1099 488 917 583 954 l 481 1139 b 414 1055 469 1093 451 1055 b 201 1143 354 1055 315 1143 b 3 961 124 1143 32 1103 z "},"¯":{"ha":437,"x_min":0,"x_max":0,"o":"m 3 942 l 448 942 l 448 1078 l 3 1078 z "},"¸":{"ha":407,"x_min":0,"x_max":0,"o":"m 96 -389 b 395 -174 259 -391 395 -286 b 287 -58 395 -109 348 -58 b 271 -59 281 -58 277 -59 l 344 28 l 215 28 l 101 -113 l 133 -154 b 166 -149 146 -151 157 -149 b 209 -180 202 -149 209 -169 b 28 -233 209 -210 160 -233 z "},"˛":{"ha":451,"x_min":0,"x_max":0,"o":"m 378 -372 l 352 -189 b 271 -201 317 -197 286 -201 b 232 -157 243 -201 232 -180 b 366 0 232 -111 272 -69 l 235 23 b 30 -218 123 -7 30 -101 b 248 -387 30 -323 106 -387 b 378 -372 287 -387 330 -382 z "}}}
